#N canvas 100 241 387 432 10;
#X obj 51 117 sel 97 98;
#X obj 51 235 unpack 0 0 0 0 0 0;
#X floatatom 13 382 5 0 0 0 - - -;
#X floatatom 57 382 5 0 0 0 - - -;
#X floatatom 98 382 5 0 0 0 - - -;
#X floatatom 139 382 5 0 0 0 - - -;
#X floatatom 181 383 5 0 0 0 - - -;
#X floatatom 223 384 5 0 0 0 - - -;
#X obj 51 81 comport 1 57600;
#X obj 51 165 zl group 1000;
#X obj 51 196 bytes2any 32;
#X msg 51 49 devicename /dev/tty.orb1-DevB;
#X text 46 24 Change devicename to orb port and push devicename box
;
#X connect 0 0 9 0;
#X connect 0 2 9 0;
#X connect 1 0 2 0;
#X connect 1 1 3 0;
#X connect 1 2 4 0;
#X connect 1 3 5 0;
#X connect 1 4 6 0;
#X connect 1 5 7 0;
#X connect 8 0 0 0;
#X connect 9 0 10 0;
#X connect 10 0 1 0;
#X connect 11 0 8 0;
