{
	"patcher" : 	{
		"fileversion" : 1,
		"appversion" : 		{
			"major" : 5,
			"minor" : 1,
			"revision" : 9
		}
,
		"rect" : [ 41.0, 44.0, 1615.0, 864.0 ],
		"bglocked" : 0,
		"defrect" : [ 41.0, 44.0, 1615.0, 864.0 ],
		"openrect" : [ 0.0, 0.0, 0.0, 0.0 ],
		"openinpresentation" : 0,
		"default_fontsize" : 12.0,
		"default_fontface" : 0,
		"default_fontname" : "Arial",
		"gridonopen" : 0,
		"gridsize" : [ 15.0, 15.0 ],
		"gridsnaponopen" : 0,
		"toolbarvisible" : 1,
		"boxanimatetime" : 200,
		"imprint" : 0,
		"enablehscroll" : 1,
		"enablevscroll" : 1,
		"devicewidth" : 0.0,
		"boxes" : [ 			{
				"box" : 				{
					"maxclass" : "inlet",
					"id" : "obj-65",
					"numinlets" : 0,
					"patching_rect" : [ 1183.380005, 219.009979, 25.0, 25.0 ],
					"numoutlets" : 1,
					"outlettype" : [ "" ],
					"comment" : ""
				}

			}
, 			{
				"box" : 				{
					"maxclass" : "inlet",
					"id" : "obj-64",
					"presentation_rect" : [ 1074.47998, 219.009979, 0.0, 0.0 ],
					"numinlets" : 0,
					"patching_rect" : [ 1074.47998, 219.009979, 25.0, 25.0 ],
					"numoutlets" : 1,
					"outlettype" : [ "" ],
					"comment" : ""
				}

			}
, 			{
				"box" : 				{
					"maxclass" : "inlet",
					"id" : "obj-63",
					"numinlets" : 0,
					"patching_rect" : [ 965.579956, 219.009979, 25.0, 25.0 ],
					"numoutlets" : 1,
					"outlettype" : [ "" ],
					"comment" : ""
				}

			}
, 			{
				"box" : 				{
					"maxclass" : "outlet",
					"id" : "obj-62",
					"numinlets" : 1,
					"patching_rect" : [ 966.789917, 595.319946, 25.0, 25.0 ],
					"numoutlets" : 0,
					"comment" : ""
				}

			}
, 			{
				"box" : 				{
					"maxclass" : "flonum",
					"id" : "obj-58",
					"fontname" : "Arial",
					"fontsize" : 12.0,
					"numinlets" : 1,
					"patching_rect" : [ 967.999939, 459.799988, 50.0, 20.0 ],
					"numoutlets" : 2,
					"outlettype" : [ "float", "bang" ]
				}

			}
, 			{
				"box" : 				{
					"maxclass" : "newobj",
					"text" : "mean",
					"id" : "obj-57",
					"fontname" : "Arial",
					"fontsize" : 11.595187,
					"numinlets" : 1,
					"patching_rect" : [ 967.089966, 438.98996, 38.0, 20.0 ],
					"numoutlets" : 2,
					"outlettype" : [ "float", "int" ]
				}

			}
, 			{
				"box" : 				{
					"maxclass" : "newobj",
					"text" : "pack 0. 0. 0. 0",
					"id" : "obj-59",
					"fontname" : "Arial",
					"fontsize" : 11.595187,
					"numinlets" : 4,
					"patching_rect" : [ 967.089966, 415.98996, 83.0, 20.0 ],
					"numoutlets" : 1,
					"outlettype" : [ "" ]
				}

			}
, 			{
				"box" : 				{
					"maxclass" : "newobj",
					"text" : "bucket 2",
					"id" : "obj-60",
					"fontname" : "Arial",
					"fontsize" : 11.595187,
					"numinlets" : 1,
					"patching_rect" : [ 981.27179, 389.98996, 54.0, 20.0 ],
					"numoutlets" : 2,
					"outlettype" : [ "", "" ]
				}

			}
, 			{
				"box" : 				{
					"maxclass" : "newobj",
					"text" : "sel 0",
					"id" : "obj-37",
					"fontname" : "Arial",
					"fontsize" : 12.0,
					"numinlets" : 2,
					"patching_rect" : [ 966.789917, 561.439941, 36.0, 20.0 ],
					"numoutlets" : 2,
					"outlettype" : [ "bang", "" ]
				}

			}
, 			{
				"box" : 				{
					"maxclass" : "number",
					"id" : "obj-36",
					"fontname" : "Arial",
					"fontsize" : 175.449219,
					"numinlets" : 1,
					"patching_rect" : [ 1082.949951, 670.582031, 520.689941, 208.0 ],
					"numoutlets" : 2,
					"outlettype" : [ "int", "bang" ]
				}

			}
, 			{
				"box" : 				{
					"maxclass" : "newobj",
					"text" : "counter 1 8",
					"id" : "obj-34",
					"fontname" : "Arial",
					"fontsize" : 12.0,
					"numinlets" : 5,
					"patching_rect" : [ 975.259888, 680.019897, 73.0, 20.0 ],
					"numoutlets" : 4,
					"outlettype" : [ "int", "", "", "int" ]
				}

			}
, 			{
				"box" : 				{
					"maxclass" : "number",
					"id" : "obj-29",
					"fontname" : "Arial",
					"fontsize" : 12.0,
					"numinlets" : 1,
					"patching_rect" : [ 966.789917, 513.039917, 50.0, 20.0 ],
					"numoutlets" : 2,
					"outlettype" : [ "int", "bang" ]
				}

			}
, 			{
				"box" : 				{
					"maxclass" : "newobj",
					"text" : "change",
					"id" : "obj-27",
					"fontname" : "Arial",
					"fontsize" : 12.0,
					"numinlets" : 1,
					"patching_rect" : [ 966.789917, 537.239929, 50.0, 20.0 ],
					"numoutlets" : 3,
					"outlettype" : [ "", "int", "int" ]
				}

			}
, 			{
				"box" : 				{
					"maxclass" : "newobj",
					"text" : "> 1.25",
					"id" : "obj-26",
					"fontname" : "Arial",
					"fontsize" : 12.0,
					"numinlets" : 2,
					"patching_rect" : [ 966.789917, 485.209961, 44.0, 20.0 ],
					"numoutlets" : 1,
					"outlettype" : [ "int" ]
				}

			}
, 			{
				"box" : 				{
					"maxclass" : "newobj",
					"text" : "p rampsmooth 441 441",
					"id" : "obj-267",
					"fontname" : "Arial",
					"fontsize" : 12.0,
					"numinlets" : 2,
					"patching_rect" : [ 967.889954, 356.509888, 134.0, 20.0 ],
					"numoutlets" : 1,
					"outlettype" : [ "float" ],
					"patcher" : 					{
						"fileversion" : 1,
						"appversion" : 						{
							"major" : 5,
							"minor" : 1,
							"revision" : 9
						}
,
						"rect" : [ 70.0, 69.0, 640.0, 480.0 ],
						"bglocked" : 0,
						"defrect" : [ 70.0, 69.0, 640.0, 480.0 ],
						"openrect" : [ 0.0, 0.0, 0.0, 0.0 ],
						"openinpresentation" : 0,
						"default_fontsize" : 12.0,
						"default_fontface" : 0,
						"default_fontname" : "Arial",
						"gridonopen" : 0,
						"gridsize" : [ 15.0, 15.0 ],
						"gridsnaponopen" : 0,
						"toolbarvisible" : 1,
						"boxanimatetime" : 200,
						"imprint" : 0,
						"enablehscroll" : 1,
						"enablevscroll" : 1,
						"devicewidth" : 0.0,
						"boxes" : [ 							{
								"box" : 								{
									"maxclass" : "inlet",
									"id" : "obj-1",
									"numinlets" : 0,
									"patching_rect" : [ 222.0, 25.0, 25.0, 25.0 ],
									"numoutlets" : 1,
									"outlettype" : [ "" ],
									"comment" : ""
								}

							}
, 							{
								"box" : 								{
									"maxclass" : "flonum",
									"id" : "obj-258",
									"fontname" : "Arial",
									"fontsize" : 12.0,
									"numinlets" : 1,
									"patching_rect" : [ 50.0, 239.700012, 50.0, 20.0 ],
									"numoutlets" : 2,
									"outlettype" : [ "float", "bang" ]
								}

							}
, 							{
								"box" : 								{
									"maxclass" : "newobj",
									"text" : "snapshot~ 1.",
									"id" : "obj-254",
									"fontname" : "Arial",
									"fontsize" : 12.0,
									"numinlets" : 2,
									"patching_rect" : [ 50.0, 196.799988, 80.0, 20.0 ],
									"numoutlets" : 1,
									"outlettype" : [ "float" ]
								}

							}
, 							{
								"box" : 								{
									"maxclass" : "newobj",
									"text" : "rampsmooth~ 10 10",
									"id" : "obj-253",
									"fontname" : "Arial",
									"fontsize" : 12.0,
									"numinlets" : 3,
									"patching_rect" : [ 50.0, 100.0, 118.0, 20.0 ],
									"numoutlets" : 1,
									"outlettype" : [ "signal" ]
								}

							}
, 							{
								"box" : 								{
									"maxclass" : "inlet",
									"id" : "obj-265",
									"numinlets" : 0,
									"patching_rect" : [ 50.0, 40.0, 25.0, 25.0 ],
									"numoutlets" : 1,
									"outlettype" : [ "signal" ],
									"comment" : ""
								}

							}
, 							{
								"box" : 								{
									"maxclass" : "outlet",
									"id" : "obj-266",
									"numinlets" : 1,
									"patching_rect" : [ 50.0, 319.700012, 25.0, 25.0 ],
									"numoutlets" : 0,
									"comment" : ""
								}

							}
 ],
						"lines" : [ 							{
								"patchline" : 								{
									"source" : [ "obj-254", 0 ],
									"destination" : [ "obj-258", 0 ],
									"hidden" : 0,
									"midpoints" : [  ]
								}

							}
, 							{
								"patchline" : 								{
									"source" : [ "obj-253", 0 ],
									"destination" : [ "obj-254", 0 ],
									"hidden" : 0,
									"midpoints" : [  ]
								}

							}
, 							{
								"patchline" : 								{
									"source" : [ "obj-258", 0 ],
									"destination" : [ "obj-266", 0 ],
									"hidden" : 0,
									"midpoints" : [  ]
								}

							}
, 							{
								"patchline" : 								{
									"source" : [ "obj-265", 0 ],
									"destination" : [ "obj-253", 0 ],
									"hidden" : 0,
									"midpoints" : [  ]
								}

							}
, 							{
								"patchline" : 								{
									"source" : [ "obj-1", 0 ],
									"destination" : [ "obj-253", 1 ],
									"hidden" : 0,
									"midpoints" : [  ]
								}

							}
, 							{
								"patchline" : 								{
									"source" : [ "obj-1", 0 ],
									"destination" : [ "obj-253", 2 ],
									"hidden" : 0,
									"midpoints" : [  ]
								}

							}
 ]
					}
,
					"saved_object_attributes" : 					{
						"default_fontface" : 0,
						"fontname" : "Arial",
						"default_fontname" : "Arial",
						"globalpatchername" : "",
						"default_fontsize" : 12.0,
						"fontface" : 0,
						"fontsize" : 12.0
					}

				}

			}
, 			{
				"box" : 				{
					"maxclass" : "ezdac~",
					"id" : "obj-249",
					"numinlets" : 2,
					"patching_rect" : [ 44.000042, 590.699951, 329.899963, 329.899963 ],
					"numoutlets" : 0
				}

			}
, 			{
				"box" : 				{
					"maxclass" : "newobj",
					"text" : "sig~",
					"id" : "obj-248",
					"fontname" : "Arial",
					"fontsize" : 12.0,
					"numinlets" : 1,
					"patching_rect" : [ 967.889954, 324.169983, 33.0, 20.0 ],
					"numoutlets" : 1,
					"outlettype" : [ "signal" ]
				}

			}
, 			{
				"box" : 				{
					"maxclass" : "newobj",
					"text" : "+ 1.",
					"id" : "obj-54",
					"fontname" : "Arial",
					"fontsize" : 12.0,
					"numinlets" : 2,
					"patching_rect" : [ 967.889954, 294.909943, 32.5, 20.0 ],
					"numoutlets" : 1,
					"outlettype" : [ "float" ]
				}

			}
, 			{
				"box" : 				{
					"maxclass" : "newobj",
					"text" : "zmap -99 99 0. 1.",
					"id" : "obj-48",
					"fontname" : "Arial",
					"fontsize" : 12.0,
					"numinlets" : 5,
					"patching_rect" : [ 1187.339966, 259.599976, 104.0, 20.0 ],
					"numoutlets" : 1,
					"outlettype" : [ "" ]
				}

			}
, 			{
				"box" : 				{
					"maxclass" : "newobj",
					"text" : "zmap -99 99 0. 1.",
					"id" : "obj-47",
					"fontname" : "Arial",
					"fontsize" : 12.0,
					"numinlets" : 5,
					"patching_rect" : [ 1078.439941, 260.699982, 104.0, 20.0 ],
					"numoutlets" : 1,
					"outlettype" : [ "" ]
				}

			}
, 			{
				"box" : 				{
					"maxclass" : "newobj",
					"text" : "zmap -99 99 0. 1.",
					"id" : "obj-45",
					"fontname" : "Arial",
					"fontsize" : 12.0,
					"numinlets" : 5,
					"patching_rect" : [ 969.539978, 259.599976, 104.0, 20.0 ],
					"numoutlets" : 1,
					"outlettype" : [ "" ]
				}

			}
, 			{
				"box" : 				{
					"maxclass" : "comment",
					"text" : "Get on the Belkin.475D network\nClick Apple | System Preferences | Network\nClick Advanced | TCP/IP\nChange Configure IPV4 to Using DHCP with manual address\nChange IPv4 Address to 192.168.2.100\nPush OK\n\nWhen changing back to regular DHCP make sure to push APPLY",
					"linecount" : 8,
					"id" : "obj-44",
					"fontname" : "Arial",
					"fontsize" : 12.0,
					"numinlets" : 1,
					"patching_rect" : [ 26.0, 256.0, 358.0, 117.0 ],
					"numoutlets" : 0
				}

			}
, 			{
				"box" : 				{
					"maxclass" : "newobj",
					"text" : "loadbang",
					"id" : "obj-39",
					"fontname" : "Arial",
					"fontsize" : 12.0,
					"numinlets" : 1,
					"patching_rect" : [ 795.609985, -37.889992, 60.0, 20.0 ],
					"numoutlets" : 1,
					"outlettype" : [ "bang" ]
				}

			}
, 			{
				"box" : 				{
					"maxclass" : "button",
					"id" : "obj-38",
					"numinlets" : 1,
					"patching_rect" : [ 795.609985, 7.110009, 20.0, 20.0 ],
					"numoutlets" : 1,
					"outlettype" : [ "bang" ]
				}

			}
, 			{
				"box" : 				{
					"maxclass" : "comment",
					"text" : "Z",
					"id" : "obj-16",
					"fontname" : "Arial",
					"fontsize" : 12.0,
					"numinlets" : 1,
					"patching_rect" : [ 927.609985, 101.110001, 18.0, 20.0 ],
					"numoutlets" : 0
				}

			}
, 			{
				"box" : 				{
					"maxclass" : "comment",
					"text" : "Y",
					"id" : "obj-14",
					"fontname" : "Arial",
					"fontsize" : 12.0,
					"numinlets" : 1,
					"patching_rect" : [ 846.609985, 101.110001, 18.0, 20.0 ],
					"numoutlets" : 0
				}

			}
, 			{
				"box" : 				{
					"maxclass" : "comment",
					"text" : "X",
					"id" : "obj-13",
					"fontname" : "Arial",
					"fontsize" : 12.0,
					"numinlets" : 1,
					"patching_rect" : [ 39.0, 208.0, 18.0, 20.0 ],
					"numoutlets" : 0
				}

			}
, 			{
				"box" : 				{
					"maxclass" : "number",
					"id" : "obj-200",
					"fontname" : "Arial",
					"fontsize" : 12.0,
					"numinlets" : 1,
					"patching_rect" : [ 945.609985, 101.110001, 62.0, 20.0 ],
					"numoutlets" : 2,
					"outlettype" : [ "int", "bang" ]
				}

			}
, 			{
				"box" : 				{
					"maxclass" : "number",
					"id" : "obj-201",
					"fontname" : "Arial",
					"fontsize" : 12.0,
					"numinlets" : 1,
					"patching_rect" : [ 864.609985, 101.110001, 64.0, 20.0 ],
					"numoutlets" : 2,
					"outlettype" : [ "int", "bang" ]
				}

			}
, 			{
				"box" : 				{
					"maxclass" : "number",
					"id" : "obj-202",
					"fontname" : "Arial",
					"fontsize" : 12.0,
					"numinlets" : 1,
					"patching_rect" : [ 795.609985, 101.110001, 50.0, 20.0 ],
					"numoutlets" : 2,
					"outlettype" : [ "int", "bang" ]
				}

			}
, 			{
				"box" : 				{
					"maxclass" : "newobj",
					"text" : "p orbitarudp",
					"id" : "obj-10",
					"fontname" : "Arial",
					"fontsize" : 12.0,
					"numinlets" : 1,
					"patching_rect" : [ 795.609985, 45.110008, 86.5, 20.0 ],
					"numoutlets" : 6,
					"outlettype" : [ "int", "int", "int", "int", "int", "int" ],
					"patcher" : 					{
						"fileversion" : 1,
						"appversion" : 						{
							"major" : 5,
							"minor" : 1,
							"revision" : 9
						}
,
						"rect" : [ 84.0, 300.0, 693.0, 480.0 ],
						"bglocked" : 0,
						"defrect" : [ 84.0, 300.0, 693.0, 480.0 ],
						"openrect" : [ 0.0, 0.0, 0.0, 0.0 ],
						"openinpresentation" : 0,
						"default_fontsize" : 12.0,
						"default_fontface" : 0,
						"default_fontname" : "Arial",
						"gridonopen" : 0,
						"gridsize" : [ 15.0, 15.0 ],
						"gridsnaponopen" : 0,
						"toolbarvisible" : 1,
						"boxanimatetime" : 200,
						"imprint" : 0,
						"enablehscroll" : 1,
						"enablevscroll" : 1,
						"devicewidth" : 0.0,
						"boxes" : [ 							{
								"box" : 								{
									"maxclass" : "message",
									"text" : "0, 0, 0, 10",
									"id" : "obj-18",
									"fontname" : "Arial",
									"fontsize" : 12.0,
									"numinlets" : 2,
									"patching_rect" : [ 137.5, 164.0, 64.0, 18.0 ],
									"numoutlets" : 1,
									"outlettype" : [ "" ]
								}

							}
, 							{
								"box" : 								{
									"maxclass" : "inlet",
									"id" : "obj-16",
									"numinlets" : 0,
									"patching_rect" : [ 45.0, 12.0, 25.0, 25.0 ],
									"numoutlets" : 1,
									"outlettype" : [ "bang" ],
									"comment" : ""
								}

							}
, 							{
								"box" : 								{
									"maxclass" : "message",
									"text" : "0, 0, 255, 10",
									"id" : "obj-17",
									"fontname" : "Arial",
									"fontsize" : 12.0,
									"numinlets" : 2,
									"patching_rect" : [ 384.0, 164.0, 77.0, 18.0 ],
									"numoutlets" : 1,
									"outlettype" : [ "" ]
								}

							}
, 							{
								"box" : 								{
									"maxclass" : "message",
									"text" : "0, 255, 0, 10",
									"id" : "obj-15",
									"fontname" : "Arial",
									"fontsize" : 12.0,
									"numinlets" : 2,
									"patching_rect" : [ 295.5, 164.0, 77.0, 18.0 ],
									"numoutlets" : 1,
									"outlettype" : [ "" ]
								}

							}
, 							{
								"box" : 								{
									"maxclass" : "message",
									"text" : "port 2000",
									"id" : "obj-11",
									"fontname" : "Arial",
									"fontsize" : 12.0,
									"numinlets" : 2,
									"patching_rect" : [ 474.0, 164.0, 61.0, 18.0 ],
									"numoutlets" : 1,
									"outlettype" : [ "" ]
								}

							}
, 							{
								"box" : 								{
									"maxclass" : "newobj",
									"text" : "sadam.udpSender",
									"id" : "obj-8",
									"fontname" : "Arial",
									"fontsize" : 12.0,
									"numinlets" : 1,
									"patching_rect" : [ 304.0, 221.0, 109.0, 20.0 ],
									"numoutlets" : 1,
									"outlettype" : [ "int" ]
								}

							}
, 							{
								"box" : 								{
									"maxclass" : "message",
									"text" : "255, 0, 0, 10",
									"id" : "obj-14",
									"fontname" : "Arial",
									"fontsize" : 12.0,
									"numinlets" : 2,
									"patching_rect" : [ 210.5, 164.0, 77.0, 18.0 ],
									"numoutlets" : 1,
									"outlettype" : [ "" ]
								}

							}
, 							{
								"box" : 								{
									"maxclass" : "message",
									"text" : "address 192.168.2.101",
									"id" : "obj-13",
									"fontname" : "Arial",
									"fontsize" : 12.0,
									"numinlets" : 2,
									"patching_rect" : [ 555.0, 164.0, 133.0, 18.0 ],
									"numoutlets" : 1,
									"outlettype" : [ "" ]
								}

							}
, 							{
								"box" : 								{
									"maxclass" : "newobj",
									"text" : "iter",
									"id" : "obj-12",
									"fontname" : "Arial",
									"fontsize" : 12.0,
									"numinlets" : 1,
									"patching_rect" : [ 45.0, 134.0, 27.0, 20.0 ],
									"numoutlets" : 1,
									"outlettype" : [ "" ]
								}

							}
, 							{
								"box" : 								{
									"maxclass" : "message",
									"text" : "port 2001",
									"id" : "obj-9",
									"fontname" : "Arial",
									"fontsize" : 12.0,
									"numinlets" : 2,
									"patching_rect" : [ 45.0, 59.0, 61.0, 18.0 ],
									"numoutlets" : 1,
									"outlettype" : [ "" ]
								}

							}
, 							{
								"box" : 								{
									"maxclass" : "newobj",
									"text" : "sadam.udpReceiver",
									"id" : "obj-4",
									"fontname" : "Arial",
									"fontsize" : 12.0,
									"numinlets" : 1,
									"patching_rect" : [ 45.0, 99.0, 117.0, 20.0 ],
									"numoutlets" : 2,
									"outlettype" : [ "list", "int" ]
								}

							}
, 							{
								"box" : 								{
									"maxclass" : "outlet",
									"annotation" : "Zaccel",
									"id" : "obj-1",
									"numinlets" : 1,
									"patching_rect" : [ 190.5, 384.0, 25.0, 25.0 ],
									"numoutlets" : 0,
									"comment" : "Zaccel"
								}

							}
, 							{
								"box" : 								{
									"maxclass" : "outlet",
									"annotation" : "Yaccel",
									"id" : "obj-2",
									"numinlets" : 1,
									"patching_rect" : [ 161.5, 384.0, 25.0, 25.0 ],
									"numoutlets" : 0,
									"comment" : "Yaccel"
								}

							}
, 							{
								"box" : 								{
									"maxclass" : "outlet",
									"hint" : "",
									"annotation" : "Xaccel",
									"id" : "obj-3",
									"numinlets" : 1,
									"patching_rect" : [ 132.5, 384.0, 25.0, 25.0 ],
									"numoutlets" : 0,
									"comment" : "Xaccel"
								}

							}
, 							{
								"box" : 								{
									"maxclass" : "outlet",
									"annotation" : "Zgrav",
									"id" : "obj-7",
									"numinlets" : 1,
									"patching_rect" : [ 103.0, 384.0, 25.0, 25.0 ],
									"numoutlets" : 0,
									"comment" : "Zgrav"
								}

							}
, 							{
								"box" : 								{
									"maxclass" : "outlet",
									"annotation" : "Ygrav",
									"id" : "obj-6",
									"numinlets" : 1,
									"patching_rect" : [ 74.0, 384.0, 25.0, 25.0 ],
									"numoutlets" : 0,
									"comment" : "Ygrav"
								}

							}
, 							{
								"box" : 								{
									"maxclass" : "outlet",
									"hint" : "",
									"annotation" : "Xgrav",
									"id" : "obj-5",
									"numinlets" : 1,
									"patching_rect" : [ 45.0, 384.0, 25.0, 25.0 ],
									"numoutlets" : 0,
									"comment" : "Xgrav"
								}

							}
, 							{
								"box" : 								{
									"maxclass" : "newobj",
									"text" : "unpack 0 0 0 0 0 0",
									"id" : "obj-117",
									"fontname" : "Arial",
									"fontsize" : 12.0,
									"numinlets" : 1,
									"patching_rect" : [ 45.0, 311.0, 109.0, 20.0 ],
									"numoutlets" : 6,
									"outlettype" : [ "int", "int", "int", "int", "int", "int" ]
								}

							}
, 							{
								"box" : 								{
									"maxclass" : "newobj",
									"text" : "fromsymbol",
									"id" : "obj-118",
									"fontname" : "Arial",
									"fontsize" : 12.0,
									"numinlets" : 1,
									"patching_rect" : [ 45.0, 282.0, 73.0, 20.0 ],
									"numoutlets" : 1,
									"outlettype" : [ "" ]
								}

							}
, 							{
								"box" : 								{
									"maxclass" : "newobj",
									"text" : "itoa",
									"id" : "obj-119",
									"fontname" : "Arial",
									"fontsize" : 12.0,
									"numinlets" : 3,
									"patching_rect" : [ 45.0, 243.0, 46.0, 20.0 ],
									"numoutlets" : 1,
									"outlettype" : [ "int" ]
								}

							}
, 							{
								"box" : 								{
									"maxclass" : "newobj",
									"text" : "zl group 1000",
									"id" : "obj-120",
									"fontname" : "Arial",
									"fontsize" : 12.0,
									"numinlets" : 2,
									"patching_rect" : [ 45.0, 207.0, 83.0, 20.0 ],
									"numoutlets" : 2,
									"outlettype" : [ "", "" ]
								}

							}
, 							{
								"box" : 								{
									"maxclass" : "newobj",
									"text" : "sel 97 98",
									"id" : "obj-121",
									"fontname" : "Arial",
									"fontsize" : 12.0,
									"numinlets" : 1,
									"patching_rect" : [ 45.0, 164.0, 59.0, 20.0 ],
									"numoutlets" : 3,
									"outlettype" : [ "bang", "bang", "" ]
								}

							}
 ],
						"lines" : [ 							{
								"patchline" : 								{
									"source" : [ "obj-9", 0 ],
									"destination" : [ "obj-4", 0 ],
									"hidden" : 0,
									"midpoints" : [  ]
								}

							}
, 							{
								"patchline" : 								{
									"source" : [ "obj-4", 0 ],
									"destination" : [ "obj-12", 0 ],
									"hidden" : 0,
									"midpoints" : [  ]
								}

							}
, 							{
								"patchline" : 								{
									"source" : [ "obj-18", 0 ],
									"destination" : [ "obj-8", 0 ],
									"hidden" : 0,
									"midpoints" : [  ]
								}

							}
, 							{
								"patchline" : 								{
									"source" : [ "obj-17", 0 ],
									"destination" : [ "obj-8", 0 ],
									"hidden" : 0,
									"midpoints" : [  ]
								}

							}
, 							{
								"patchline" : 								{
									"source" : [ "obj-16", 0 ],
									"destination" : [ "obj-9", 0 ],
									"hidden" : 0,
									"midpoints" : [  ]
								}

							}
, 							{
								"patchline" : 								{
									"source" : [ "obj-16", 0 ],
									"destination" : [ "obj-13", 0 ],
									"hidden" : 0,
									"midpoints" : [  ]
								}

							}
, 							{
								"patchline" : 								{
									"source" : [ "obj-16", 0 ],
									"destination" : [ "obj-11", 0 ],
									"hidden" : 0,
									"midpoints" : [  ]
								}

							}
, 							{
								"patchline" : 								{
									"source" : [ "obj-15", 0 ],
									"destination" : [ "obj-8", 0 ],
									"hidden" : 0,
									"midpoints" : [  ]
								}

							}
, 							{
								"patchline" : 								{
									"source" : [ "obj-14", 0 ],
									"destination" : [ "obj-8", 0 ],
									"hidden" : 0,
									"midpoints" : [  ]
								}

							}
, 							{
								"patchline" : 								{
									"source" : [ "obj-13", 0 ],
									"destination" : [ "obj-8", 0 ],
									"hidden" : 0,
									"midpoints" : [  ]
								}

							}
, 							{
								"patchline" : 								{
									"source" : [ "obj-121", 0 ],
									"destination" : [ "obj-120", 0 ],
									"hidden" : 0,
									"midpoints" : [  ]
								}

							}
, 							{
								"patchline" : 								{
									"source" : [ "obj-121", 2 ],
									"destination" : [ "obj-120", 0 ],
									"hidden" : 0,
									"midpoints" : [  ]
								}

							}
, 							{
								"patchline" : 								{
									"source" : [ "obj-120", 0 ],
									"destination" : [ "obj-119", 0 ],
									"hidden" : 0,
									"midpoints" : [  ]
								}

							}
, 							{
								"patchline" : 								{
									"source" : [ "obj-12", 0 ],
									"destination" : [ "obj-121", 0 ],
									"hidden" : 0,
									"midpoints" : [  ]
								}

							}
, 							{
								"patchline" : 								{
									"source" : [ "obj-119", 0 ],
									"destination" : [ "obj-118", 0 ],
									"hidden" : 0,
									"midpoints" : [  ]
								}

							}
, 							{
								"patchline" : 								{
									"source" : [ "obj-118", 0 ],
									"destination" : [ "obj-117", 0 ],
									"hidden" : 0,
									"midpoints" : [  ]
								}

							}
, 							{
								"patchline" : 								{
									"source" : [ "obj-117", 2 ],
									"destination" : [ "obj-7", 0 ],
									"hidden" : 0,
									"midpoints" : [  ]
								}

							}
, 							{
								"patchline" : 								{
									"source" : [ "obj-117", 1 ],
									"destination" : [ "obj-6", 0 ],
									"hidden" : 0,
									"midpoints" : [  ]
								}

							}
, 							{
								"patchline" : 								{
									"source" : [ "obj-117", 0 ],
									"destination" : [ "obj-5", 0 ],
									"hidden" : 0,
									"midpoints" : [  ]
								}

							}
, 							{
								"patchline" : 								{
									"source" : [ "obj-117", 3 ],
									"destination" : [ "obj-3", 0 ],
									"hidden" : 0,
									"midpoints" : [  ]
								}

							}
, 							{
								"patchline" : 								{
									"source" : [ "obj-117", 4 ],
									"destination" : [ "obj-2", 0 ],
									"hidden" : 0,
									"midpoints" : [  ]
								}

							}
, 							{
								"patchline" : 								{
									"source" : [ "obj-117", 5 ],
									"destination" : [ "obj-1", 0 ],
									"hidden" : 0,
									"midpoints" : [  ]
								}

							}
, 							{
								"patchline" : 								{
									"source" : [ "obj-11", 0 ],
									"destination" : [ "obj-8", 0 ],
									"hidden" : 0,
									"midpoints" : [  ]
								}

							}
 ]
					}
,
					"saved_object_attributes" : 					{
						"default_fontface" : 0,
						"fontname" : "Arial",
						"default_fontname" : "Arial",
						"globalpatchername" : "",
						"default_fontsize" : 12.0,
						"fontface" : 0,
						"fontsize" : 12.0
					}

				}

			}
 ],
		"lines" : [ 			{
				"patchline" : 				{
					"source" : [ "obj-37", 0 ],
					"destination" : [ "obj-34", 0 ],
					"hidden" : 0,
					"midpoints" : [  ]
				}

			}
, 			{
				"patchline" : 				{
					"source" : [ "obj-201", 0 ],
					"destination" : [ "obj-47", 0 ],
					"hidden" : 0,
					"midpoints" : [  ]
				}

			}
, 			{
				"patchline" : 				{
					"source" : [ "obj-63", 0 ],
					"destination" : [ "obj-45", 0 ],
					"hidden" : 0,
					"midpoints" : [  ]
				}

			}
, 			{
				"patchline" : 				{
					"source" : [ "obj-64", 0 ],
					"destination" : [ "obj-47", 0 ],
					"hidden" : 0,
					"midpoints" : [  ]
				}

			}
, 			{
				"patchline" : 				{
					"source" : [ "obj-65", 0 ],
					"destination" : [ "obj-48", 0 ],
					"hidden" : 0,
					"midpoints" : [  ]
				}

			}
, 			{
				"patchline" : 				{
					"source" : [ "obj-37", 0 ],
					"destination" : [ "obj-62", 0 ],
					"hidden" : 0,
					"midpoints" : [  ]
				}

			}
, 			{
				"patchline" : 				{
					"source" : [ "obj-26", 0 ],
					"destination" : [ "obj-29", 0 ],
					"hidden" : 0,
					"midpoints" : [  ]
				}

			}
, 			{
				"patchline" : 				{
					"source" : [ "obj-58", 0 ],
					"destination" : [ "obj-26", 0 ],
					"hidden" : 0,
					"midpoints" : [  ]
				}

			}
, 			{
				"patchline" : 				{
					"source" : [ "obj-57", 0 ],
					"destination" : [ "obj-58", 0 ],
					"hidden" : 0,
					"midpoints" : [  ]
				}

			}
, 			{
				"patchline" : 				{
					"source" : [ "obj-59", 0 ],
					"destination" : [ "obj-57", 0 ],
					"hidden" : 0,
					"midpoints" : [  ]
				}

			}
, 			{
				"patchline" : 				{
					"source" : [ "obj-60", 0 ],
					"destination" : [ "obj-59", 1 ],
					"hidden" : 0,
					"midpoints" : [  ]
				}

			}
, 			{
				"patchline" : 				{
					"source" : [ "obj-60", 1 ],
					"destination" : [ "obj-59", 2 ],
					"hidden" : 0,
					"midpoints" : [  ]
				}

			}
, 			{
				"patchline" : 				{
					"source" : [ "obj-267", 0 ],
					"destination" : [ "obj-59", 0 ],
					"hidden" : 0,
					"midpoints" : [  ]
				}

			}
, 			{
				"patchline" : 				{
					"source" : [ "obj-267", 0 ],
					"destination" : [ "obj-60", 0 ],
					"hidden" : 0,
					"midpoints" : [  ]
				}

			}
, 			{
				"patchline" : 				{
					"source" : [ "obj-27", 0 ],
					"destination" : [ "obj-37", 0 ],
					"hidden" : 0,
					"midpoints" : [  ]
				}

			}
, 			{
				"patchline" : 				{
					"source" : [ "obj-34", 0 ],
					"destination" : [ "obj-36", 0 ],
					"hidden" : 0,
					"midpoints" : [  ]
				}

			}
, 			{
				"patchline" : 				{
					"source" : [ "obj-29", 0 ],
					"destination" : [ "obj-27", 0 ],
					"hidden" : 0,
					"midpoints" : [  ]
				}

			}
, 			{
				"patchline" : 				{
					"source" : [ "obj-202", 0 ],
					"destination" : [ "obj-45", 0 ],
					"hidden" : 0,
					"midpoints" : [  ]
				}

			}
, 			{
				"patchline" : 				{
					"source" : [ "obj-10", 2 ],
					"destination" : [ "obj-200", 0 ],
					"hidden" : 0,
					"midpoints" : [  ]
				}

			}
, 			{
				"patchline" : 				{
					"source" : [ "obj-10", 1 ],
					"destination" : [ "obj-201", 0 ],
					"hidden" : 0,
					"midpoints" : [  ]
				}

			}
, 			{
				"patchline" : 				{
					"source" : [ "obj-10", 0 ],
					"destination" : [ "obj-202", 0 ],
					"hidden" : 0,
					"midpoints" : [  ]
				}

			}
, 			{
				"patchline" : 				{
					"source" : [ "obj-39", 0 ],
					"destination" : [ "obj-38", 0 ],
					"hidden" : 0,
					"midpoints" : [  ]
				}

			}
, 			{
				"patchline" : 				{
					"source" : [ "obj-38", 0 ],
					"destination" : [ "obj-10", 0 ],
					"hidden" : 0,
					"midpoints" : [  ]
				}

			}
, 			{
				"patchline" : 				{
					"source" : [ "obj-45", 0 ],
					"destination" : [ "obj-54", 0 ],
					"hidden" : 0,
					"midpoints" : [  ]
				}

			}
, 			{
				"patchline" : 				{
					"source" : [ "obj-47", 0 ],
					"destination" : [ "obj-54", 0 ],
					"hidden" : 0,
					"midpoints" : [  ]
				}

			}
, 			{
				"patchline" : 				{
					"source" : [ "obj-48", 0 ],
					"destination" : [ "obj-54", 0 ],
					"hidden" : 0,
					"midpoints" : [  ]
				}

			}
, 			{
				"patchline" : 				{
					"source" : [ "obj-248", 0 ],
					"destination" : [ "obj-267", 0 ],
					"hidden" : 0,
					"midpoints" : [  ]
				}

			}
, 			{
				"patchline" : 				{
					"source" : [ "obj-54", 0 ],
					"destination" : [ "obj-248", 0 ],
					"hidden" : 0,
					"midpoints" : [  ]
				}

			}
 ]
	}

}
