{
	"patcher" : 	{
		"fileversion" : 1,
		"appversion" : 		{
			"major" : 5,
			"minor" : 1,
			"revision" : 9
		}
,
		"rect" : [ 69.0, 69.0, 1079.0, 743.0 ],
		"bglocked" : 0,
		"defrect" : [ 69.0, 69.0, 1079.0, 743.0 ],
		"openrect" : [ 0.0, 0.0, 0.0, 0.0 ],
		"openinpresentation" : 0,
		"default_fontsize" : 12.0,
		"default_fontface" : 0,
		"default_fontname" : "Arial",
		"gridonopen" : 0,
		"gridsize" : [ 15.0, 15.0 ],
		"gridsnaponopen" : 0,
		"toolbarvisible" : 1,
		"boxanimatetime" : 200,
		"imprint" : 0,
		"enablehscroll" : 1,
		"enablevscroll" : 1,
		"devicewidth" : 0.0,
		"boxes" : [ 			{
				"box" : 				{
					"maxclass" : "newobj",
					"text" : "t 60 30 89",
					"numinlets" : 1,
					"id" : "obj-76",
					"fontname" : "Arial",
					"patching_rect" : [ 174.899979, 600.599976, 64.0, 20.0 ],
					"numoutlets" : 3,
					"outlettype" : [ "int", "int", "int" ],
					"fontsize" : 12.0
				}

			}
, 			{
				"box" : 				{
					"maxclass" : "newobj",
					"text" : "yafr",
					"numinlets" : 4,
					"id" : "obj-75",
					"fontname" : "Arial",
					"patching_rect" : [ 199.099976, 652.299988, 73.0, 20.0 ],
					"numoutlets" : 5,
					"outlettype" : [ "signal", "signal", "", "", "" ],
					"fontsize" : 12.0
				}

			}
, 			{
				"box" : 				{
					"maxclass" : "newobj",
					"text" : "sig~ 14",
					"numinlets" : 1,
					"id" : "obj-72",
					"fontname" : "Arial",
					"patching_rect" : [ 133.099991, 459.799927, 50.0, 20.0 ],
					"numoutlets" : 1,
					"outlettype" : [ "signal" ],
					"fontsize" : 12.0
				}

			}
, 			{
				"box" : 				{
					"maxclass" : "newobj",
					"text" : "!-~ 1.",
					"presentation_rect" : [ 147.399994, 606.099915, 0.0, 0.0 ],
					"numinlets" : 2,
					"id" : "obj-71",
					"fontname" : "Arial",
					"patching_rect" : [ 189.199982, 518.099915, 38.0, 20.0 ],
					"numoutlets" : 1,
					"outlettype" : [ "signal" ],
					"fontsize" : 12.0
				}

			}
, 			{
				"box" : 				{
					"maxclass" : "newobj",
					"text" : "pow~",
					"numinlets" : 2,
					"id" : "obj-69",
					"fontname" : "Arial",
					"patching_rect" : [ 189.199966, 489.499939, 40.0, 20.0 ],
					"numoutlets" : 1,
					"outlettype" : [ "signal" ],
					"fontsize" : 12.0
				}

			}
, 			{
				"box" : 				{
					"maxclass" : "newobj",
					"text" : "!-~ 1.",
					"numinlets" : 2,
					"id" : "obj-65",
					"fontname" : "Arial",
					"patching_rect" : [ 191.399994, 458.699951, 38.0, 20.0 ],
					"numoutlets" : 1,
					"outlettype" : [ "signal" ],
					"fontsize" : 12.0
				}

			}
, 			{
				"box" : 				{
					"maxclass" : "newobj",
					"text" : "*~ 0.3",
					"numinlets" : 2,
					"id" : "obj-50",
					"fontname" : "Arial",
					"patching_rect" : [ 270.799988, 569.400024, 42.0, 20.0 ],
					"numoutlets" : 1,
					"outlettype" : [ "signal" ],
					"fontsize" : 12.0
				}

			}
, 			{
				"box" : 				{
					"maxclass" : "newobj",
					"text" : "*~ 44.1",
					"numinlets" : 2,
					"id" : "obj-49",
					"fontname" : "Arial",
					"patching_rect" : [ 346.700012, 330.499969, 49.0, 20.0 ],
					"numoutlets" : 1,
					"outlettype" : [ "signal" ],
					"fontsize" : 12.0
				}

			}
, 			{
				"box" : 				{
					"maxclass" : "ezdac~",
					"numinlets" : 2,
					"id" : "obj-47",
					"patching_rect" : [ 276.899994, 712.200012, 45.0, 45.0 ],
					"numoutlets" : 0
				}

			}
, 			{
				"box" : 				{
					"maxclass" : "newobj",
					"text" : "*~",
					"numinlets" : 2,
					"id" : "obj-46",
					"fontname" : "Arial",
					"patching_rect" : [ 269.0, 537.0, 32.5, 20.0 ],
					"numoutlets" : 1,
					"outlettype" : [ "signal" ],
					"fontsize" : 12.0
				}

			}
, 			{
				"box" : 				{
					"maxclass" : "newobj",
					"text" : "buffer~ female_vocals female_vocals.wav",
					"numinlets" : 1,
					"id" : "obj-40",
					"fontname" : "Arial",
					"patching_rect" : [ 457.0, 416.0, 233.0, 20.0 ],
					"numoutlets" : 2,
					"outlettype" : [ "float", "bang" ],
					"fontsize" : 12.0
				}

			}
, 			{
				"box" : 				{
					"maxclass" : "newobj",
					"text" : "index~ female_vocals",
					"numinlets" : 2,
					"id" : "obj-39",
					"fontname" : "Arial",
					"patching_rect" : [ 287.0, 484.0, 126.0, 20.0 ],
					"numoutlets" : 1,
					"outlettype" : [ "signal" ],
					"fontsize" : 12.0
				}

			}
, 			{
				"box" : 				{
					"maxclass" : "flonum",
					"numinlets" : 1,
					"id" : "obj-38",
					"fontname" : "Arial",
					"patching_rect" : [ 346.700012, 274.999969, 80.799995, 20.0 ],
					"numoutlets" : 2,
					"outlettype" : [ "float", "bang" ],
					"fontsize" : 12.0
				}

			}
, 			{
				"box" : 				{
					"maxclass" : "newobj",
					"text" : "sig~",
					"numinlets" : 1,
					"id" : "obj-36",
					"fontname" : "Arial",
					"patching_rect" : [ 346.700012, 303.699982, 33.0, 20.0 ],
					"numoutlets" : 1,
					"outlettype" : [ "signal" ],
					"fontsize" : 12.0
				}

			}
, 			{
				"box" : 				{
					"maxclass" : "newobj",
					"text" : "sah~ 0.02",
					"numinlets" : 2,
					"id" : "obj-35",
					"fontname" : "Arial",
					"patching_rect" : [ 310.0, 393.0, 64.0, 20.0 ],
					"numoutlets" : 1,
					"outlettype" : [ "signal" ],
					"fontsize" : 12.0
				}

			}
, 			{
				"box" : 				{
					"maxclass" : "newobj",
					"text" : "+~",
					"numinlets" : 2,
					"id" : "obj-34",
					"fontname" : "Arial",
					"patching_rect" : [ 286.0, 437.0, 32.5, 20.0 ],
					"numoutlets" : 1,
					"outlettype" : [ "signal" ],
					"fontsize" : 12.0
				}

			}
, 			{
				"box" : 				{
					"maxclass" : "message",
					"text" : "replace",
					"numinlets" : 2,
					"id" : "obj-28",
					"fontname" : "Arial",
					"patching_rect" : [ 507.0, 171.0, 50.0, 18.0 ],
					"numoutlets" : 1,
					"outlettype" : [ "" ],
					"fontsize" : 12.0
				}

			}
, 			{
				"box" : 				{
					"maxclass" : "newobj",
					"text" : "buffer~ gauss gauss",
					"numinlets" : 1,
					"id" : "obj-26",
					"fontname" : "Arial",
					"patching_rect" : [ 507.0, 201.0, 119.0, 20.0 ],
					"numoutlets" : 2,
					"outlettype" : [ "float", "bang" ],
					"fontsize" : 12.0
				}

			}
, 			{
				"box" : 				{
					"maxclass" : "newobj",
					"text" : "wave~ gauss",
					"numinlets" : 3,
					"id" : "obj-22",
					"fontname" : "Arial",
					"patching_rect" : [ 174.0, 415.0, 81.0, 20.0 ],
					"numoutlets" : 1,
					"outlettype" : [ "signal" ],
					"fontsize" : 12.0
				}

			}
, 			{
				"box" : 				{
					"maxclass" : "flonum",
					"numinlets" : 1,
					"id" : "obj-15",
					"fontname" : "Arial",
					"patching_rect" : [ 171.0, 83.0, 50.0, 20.0 ],
					"numoutlets" : 2,
					"outlettype" : [ "float", "bang" ],
					"fontsize" : 12.0
				}

			}
, 			{
				"box" : 				{
					"maxclass" : "newobj",
					"text" : "phasor~",
					"numinlets" : 2,
					"id" : "obj-13",
					"fontname" : "Arial",
					"patching_rect" : [ 171.0, 134.0, 54.0, 20.0 ],
					"numoutlets" : 1,
					"outlettype" : [ "signal" ],
					"fontsize" : 12.0
				}

			}
, 			{
				"box" : 				{
					"maxclass" : "newobj",
					"text" : "-~",
					"numinlets" : 2,
					"id" : "obj-11",
					"fontname" : "Arial",
					"patching_rect" : [ 255.0, 306.0, 32.5, 20.0 ],
					"numoutlets" : 1,
					"outlettype" : [ "signal" ],
					"fontsize" : 12.0
				}

			}
, 			{
				"box" : 				{
					"maxclass" : "newobj",
					"text" : "sah~ 0.02",
					"numinlets" : 2,
					"id" : "obj-10",
					"fontname" : "Arial",
					"patching_rect" : [ 199.0, 274.600006, 64.0, 20.0 ],
					"numoutlets" : 1,
					"outlettype" : [ "signal" ],
					"fontsize" : 12.0
				}

			}
, 			{
				"box" : 				{
					"maxclass" : "newobj",
					"text" : "abs~",
					"numinlets" : 1,
					"id" : "obj-9",
					"fontname" : "Arial",
					"patching_rect" : [ 255.0, 337.0, 37.0, 20.0 ],
					"numoutlets" : 1,
					"outlettype" : [ "signal" ],
					"fontsize" : 12.0
				}

			}
, 			{
				"box" : 				{
					"maxclass" : "button",
					"numinlets" : 1,
					"id" : "obj-8",
					"patching_rect" : [ 264.0, 83.0, 20.0, 20.0 ],
					"numoutlets" : 1,
					"outlettype" : [ "bang" ]
				}

			}
, 			{
				"box" : 				{
					"maxclass" : "ezdac~",
					"numinlets" : 2,
					"id" : "obj-5",
					"patching_rect" : [ 36.0, 692.0, 45.0, 45.0 ],
					"numoutlets" : 0
				}

			}
, 			{
				"box" : 				{
					"maxclass" : "newobj",
					"text" : "count~",
					"numinlets" : 2,
					"id" : "obj-1",
					"fontname" : "Arial",
					"patching_rect" : [ 262.0, 138.0, 47.0, 20.0 ],
					"numoutlets" : 1,
					"outlettype" : [ "signal" ],
					"fontsize" : 12.0
				}

			}
 ],
		"lines" : [ 			{
				"patchline" : 				{
					"source" : [ "obj-75", 0 ],
					"destination" : [ "obj-47", 0 ],
					"hidden" : 0,
					"midpoints" : [  ]
				}

			}
, 			{
				"patchline" : 				{
					"source" : [ "obj-75", 1 ],
					"destination" : [ "obj-47", 1 ],
					"hidden" : 0,
					"midpoints" : [  ]
				}

			}
, 			{
				"patchline" : 				{
					"source" : [ "obj-50", 0 ],
					"destination" : [ "obj-75", 0 ],
					"hidden" : 0,
					"midpoints" : [  ]
				}

			}
, 			{
				"patchline" : 				{
					"source" : [ "obj-76", 2 ],
					"destination" : [ "obj-75", 3 ],
					"hidden" : 0,
					"midpoints" : [  ]
				}

			}
, 			{
				"patchline" : 				{
					"source" : [ "obj-76", 1 ],
					"destination" : [ "obj-75", 2 ],
					"hidden" : 0,
					"midpoints" : [  ]
				}

			}
, 			{
				"patchline" : 				{
					"source" : [ "obj-76", 0 ],
					"destination" : [ "obj-75", 1 ],
					"hidden" : 0,
					"midpoints" : [  ]
				}

			}
, 			{
				"patchline" : 				{
					"source" : [ "obj-71", 0 ],
					"destination" : [ "obj-46", 0 ],
					"hidden" : 0,
					"midpoints" : [  ]
				}

			}
, 			{
				"patchline" : 				{
					"source" : [ "obj-72", 0 ],
					"destination" : [ "obj-69", 0 ],
					"hidden" : 0,
					"midpoints" : [  ]
				}

			}
, 			{
				"patchline" : 				{
					"source" : [ "obj-69", 0 ],
					"destination" : [ "obj-71", 0 ],
					"hidden" : 0,
					"midpoints" : [  ]
				}

			}
, 			{
				"patchline" : 				{
					"source" : [ "obj-65", 0 ],
					"destination" : [ "obj-69", 1 ],
					"hidden" : 0,
					"midpoints" : [  ]
				}

			}
, 			{
				"patchline" : 				{
					"source" : [ "obj-22", 0 ],
					"destination" : [ "obj-65", 0 ],
					"hidden" : 0,
					"midpoints" : [  ]
				}

			}
, 			{
				"patchline" : 				{
					"source" : [ "obj-50", 0 ],
					"destination" : [ "obj-47", 1 ],
					"hidden" : 0,
					"midpoints" : [  ]
				}

			}
, 			{
				"patchline" : 				{
					"source" : [ "obj-50", 0 ],
					"destination" : [ "obj-47", 0 ],
					"hidden" : 0,
					"midpoints" : [  ]
				}

			}
, 			{
				"patchline" : 				{
					"source" : [ "obj-46", 0 ],
					"destination" : [ "obj-50", 0 ],
					"hidden" : 0,
					"midpoints" : [  ]
				}

			}
, 			{
				"patchline" : 				{
					"source" : [ "obj-49", 0 ],
					"destination" : [ "obj-35", 0 ],
					"hidden" : 0,
					"midpoints" : [  ]
				}

			}
, 			{
				"patchline" : 				{
					"source" : [ "obj-36", 0 ],
					"destination" : [ "obj-49", 0 ],
					"hidden" : 0,
					"midpoints" : [  ]
				}

			}
, 			{
				"patchline" : 				{
					"source" : [ "obj-10", 0 ],
					"destination" : [ "obj-11", 0 ],
					"hidden" : 0,
					"midpoints" : [  ]
				}

			}
, 			{
				"patchline" : 				{
					"source" : [ "obj-1", 0 ],
					"destination" : [ "obj-10", 0 ],
					"hidden" : 0,
					"midpoints" : [  ]
				}

			}
, 			{
				"patchline" : 				{
					"source" : [ "obj-13", 0 ],
					"destination" : [ "obj-10", 1 ],
					"hidden" : 0,
					"midpoints" : [  ]
				}

			}
, 			{
				"patchline" : 				{
					"source" : [ "obj-13", 0 ],
					"destination" : [ "obj-35", 1 ],
					"hidden" : 0,
					"midpoints" : [  ]
				}

			}
, 			{
				"patchline" : 				{
					"source" : [ "obj-35", 0 ],
					"destination" : [ "obj-34", 1 ],
					"hidden" : 0,
					"midpoints" : [  ]
				}

			}
, 			{
				"patchline" : 				{
					"source" : [ "obj-39", 0 ],
					"destination" : [ "obj-46", 1 ],
					"hidden" : 0,
					"midpoints" : [  ]
				}

			}
, 			{
				"patchline" : 				{
					"source" : [ "obj-9", 0 ],
					"destination" : [ "obj-34", 0 ],
					"hidden" : 0,
					"midpoints" : [  ]
				}

			}
, 			{
				"patchline" : 				{
					"source" : [ "obj-34", 0 ],
					"destination" : [ "obj-39", 0 ],
					"hidden" : 0,
					"midpoints" : [  ]
				}

			}
, 			{
				"patchline" : 				{
					"source" : [ "obj-38", 0 ],
					"destination" : [ "obj-36", 0 ],
					"hidden" : 0,
					"midpoints" : [  ]
				}

			}
, 			{
				"patchline" : 				{
					"source" : [ "obj-13", 0 ],
					"destination" : [ "obj-22", 0 ],
					"hidden" : 0,
					"midpoints" : [  ]
				}

			}
, 			{
				"patchline" : 				{
					"source" : [ "obj-28", 0 ],
					"destination" : [ "obj-26", 0 ],
					"hidden" : 0,
					"midpoints" : [  ]
				}

			}
, 			{
				"patchline" : 				{
					"source" : [ "obj-15", 0 ],
					"destination" : [ "obj-13", 0 ],
					"hidden" : 0,
					"midpoints" : [  ]
				}

			}
, 			{
				"patchline" : 				{
					"source" : [ "obj-11", 0 ],
					"destination" : [ "obj-9", 0 ],
					"hidden" : 0,
					"midpoints" : [  ]
				}

			}
, 			{
				"patchline" : 				{
					"source" : [ "obj-1", 0 ],
					"destination" : [ "obj-11", 1 ],
					"hidden" : 0,
					"midpoints" : [  ]
				}

			}
, 			{
				"patchline" : 				{
					"source" : [ "obj-8", 0 ],
					"destination" : [ "obj-1", 0 ],
					"hidden" : 0,
					"midpoints" : [  ]
				}

			}
 ]
	}

}
