{
	"patcher" : 	{
		"fileversion" : 1,
		"appversion" : 		{
			"major" : 5,
			"minor" : 1,
			"revision" : 9
		}
,
		"rect" : [ 61.0, 78.0, 1379.0, 795.0 ],
		"bglocked" : 0,
		"defrect" : [ 61.0, 78.0, 1379.0, 795.0 ],
		"openrect" : [ 0.0, 0.0, 0.0, 0.0 ],
		"openinpresentation" : 0,
		"default_fontsize" : 12.0,
		"default_fontface" : 0,
		"default_fontname" : "Arial",
		"gridonopen" : 0,
		"gridsize" : [ 15.0, 15.0 ],
		"gridsnaponopen" : 0,
		"toolbarvisible" : 1,
		"boxanimatetime" : 200,
		"imprint" : 0,
		"enablehscroll" : 1,
		"enablevscroll" : 1,
		"devicewidth" : 0.0,
		"boxes" : [ 			{
				"box" : 				{
					"maxclass" : "preset",
					"numinlets" : 1,
					"id" : "obj-26",
					"patching_rect" : [ 112.0, 524.0, 100.0, 40.0 ],
					"numoutlets" : 4,
					"outlettype" : [ "preset", "int", "preset", "int" ],
					"preset_data" : [ 						{
							"number" : 1,
							"data" : [ 5, "obj-150", "number", "int", 84, 5, "obj-152", "number", "int", 107, 5, "obj-154", "number", "int", 60, 5, "obj-156", "number", "int", 87, 5, "obj-158", "number", "int", 86, 5, "obj-160", "number", "int", 97, 5, "obj-59", "number", "int", 5000, 5, "obj-23", "number", "int", 127 ]
						}
, 						{
							"number" : 2,
							"data" : [ 5, "obj-150", "number", "int", 84, 5, "obj-152", "number", "int", 107, 5, "obj-154", "number", "int", 60, 5, "obj-156", "number", "int", 87, 5, "obj-158", "number", "int", 86, 5, "obj-160", "number", "int", 97, 5, "obj-59", "number", "int", 5000, 5, "obj-23", "number", "int", 87 ]
						}
, 						{
							"number" : 4,
							"data" : [ 5, "obj-150", "number", "int", 84, 5, "obj-152", "number", "int", 0, 5, "obj-154", "number", "int", 60, 5, "obj-156", "number", "int", 87, 5, "obj-158", "number", "int", 86, 5, "obj-160", "number", "int", 97, 5, "obj-59", "number", "int", 5000, 5, "obj-23", "number", "int", 87 ]
						}
, 						{
							"number" : 5,
							"data" : [ 5, "obj-150", "number", "int", 84, 5, "obj-152", "number", "int", 107, 5, "obj-154", "number", "int", 60, 5, "obj-156", "number", "int", 87, 5, "obj-158", "number", "int", 86, 5, "obj-160", "number", "int", 97, 5, "obj-59", "number", "int", 5000, 5, "obj-23", "number", "int", 87 ]
						}
, 						{
							"number" : 6,
							"data" : [ 5, "obj-150", "number", "int", 0, 5, "obj-152", "number", "int", 0, 5, "obj-154", "number", "int", 0, 5, "obj-156", "number", "int", 87, 5, "obj-158", "number", "int", 0, 5, "obj-160", "number", "int", 0, 5, "obj-59", "number", "int", 5000, 5, "obj-23", "number", "int", 87 ]
						}
, 						{
							"number" : 10,
							"data" : [ 5, "obj-150", "number", "int", 0, 5, "obj-152", "number", "int", 0, 5, "obj-154", "number", "int", 0, 5, "obj-156", "number", "int", 0, 5, "obj-158", "number", "int", 0, 5, "obj-160", "number", "int", 0, 5, "obj-59", "number", "int", 5000, 5, "obj-23", "number", "int", 126 ]
						}
, 						{
							"number" : 11,
							"data" : [ 5, "obj-150", "number", "int", 0, 5, "obj-152", "number", "int", 0, 5, "obj-154", "number", "int", 0, 5, "obj-156", "number", "int", 0, 5, "obj-158", "number", "int", 0, 5, "obj-160", "number", "int", 0, 5, "obj-59", "number", "int", 5000, 5, "obj-23", "number", "int", 0 ]
						}
 ]
				}

			}
, 			{
				"box" : 				{
					"maxclass" : "number",
					"numinlets" : 1,
					"id" : "obj-23",
					"fontname" : "Arial",
					"patching_rect" : [ 131.0, 454.0, 50.0, 20.0 ],
					"numoutlets" : 2,
					"outlettype" : [ "int", "bang" ],
					"fontsize" : 12.0
				}

			}
, 			{
				"box" : 				{
					"maxclass" : "newobj",
					"text" : "r blendTime",
					"numinlets" : 0,
					"id" : "obj-19",
					"fontname" : "Arial",
					"patching_rect" : [ 182.0, 430.0, 73.0, 20.0 ],
					"numoutlets" : 1,
					"outlettype" : [ "" ],
					"fontsize" : 12.0
				}

			}
, 			{
				"box" : 				{
					"maxclass" : "newobj",
					"text" : "pack 0. 0.",
					"numinlets" : 2,
					"id" : "obj-15",
					"fontname" : "Arial",
					"patching_rect" : [ 138.0, 481.0, 63.0, 20.0 ],
					"numoutlets" : 1,
					"outlettype" : [ "" ],
					"fontsize" : 12.0
				}

			}
, 			{
				"box" : 				{
					"maxclass" : "comment",
					"text" : "Volume slides for 3-8.\nambient ones (1-2) are pretty constant.",
					"linecount" : 2,
					"numinlets" : 1,
					"id" : "obj-18",
					"fontname" : "Arial",
					"patching_rect" : [ 488.0, 716.02002, 632.0, 66.0 ],
					"numoutlets" : 0,
					"fontsize" : 25.680544
				}

			}
, 			{
				"box" : 				{
					"maxclass" : "newobj",
					"text" : "loadmess 5000",
					"numinlets" : 1,
					"id" : "obj-71",
					"fontname" : "Arial",
					"patching_rect" : [ 1208.0, 165.0, 92.0, 20.0 ],
					"numoutlets" : 1,
					"outlettype" : [ "" ],
					"fontsize" : 12.0
				}

			}
, 			{
				"box" : 				{
					"maxclass" : "number",
					"numinlets" : 1,
					"id" : "obj-59",
					"fontname" : "Arial",
					"patching_rect" : [ 1178.0, 198.0, 50.0, 20.0 ],
					"numoutlets" : 2,
					"outlettype" : [ "int", "bang" ],
					"fontsize" : 12.0
				}

			}
, 			{
				"box" : 				{
					"maxclass" : "newobj",
					"text" : "s blendTime",
					"numinlets" : 1,
					"id" : "obj-55",
					"fontname" : "Arial",
					"patching_rect" : [ 1190.0, 248.0, 75.0, 20.0 ],
					"numoutlets" : 0,
					"fontsize" : 12.0
				}

			}
, 			{
				"box" : 				{
					"maxclass" : "newobj",
					"text" : "r blendTime",
					"numinlets" : 0,
					"id" : "obj-54",
					"fontname" : "Arial",
					"patching_rect" : [ 1217.0, 452.0, 73.0, 20.0 ],
					"numoutlets" : 1,
					"outlettype" : [ "" ],
					"fontsize" : 12.0
				}

			}
, 			{
				"box" : 				{
					"maxclass" : "newobj",
					"text" : "pack 0. 0.",
					"numinlets" : 2,
					"id" : "obj-39",
					"fontname" : "Arial",
					"patching_rect" : [ 1134.137939, 529.711914, 63.0, 20.0 ],
					"numoutlets" : 1,
					"outlettype" : [ "" ],
					"fontsize" : 12.0
				}

			}
, 			{
				"box" : 				{
					"maxclass" : "newobj",
					"text" : "pack 0. 0.",
					"numinlets" : 2,
					"id" : "obj-41",
					"fontname" : "Arial",
					"patching_rect" : [ 993.079834, 530.711914, 63.0, 20.0 ],
					"numoutlets" : 1,
					"outlettype" : [ "" ],
					"fontsize" : 12.0
				}

			}
, 			{
				"box" : 				{
					"maxclass" : "newobj",
					"text" : "pack 0. 0.",
					"numinlets" : 2,
					"id" : "obj-42",
					"fontname" : "Arial",
					"patching_rect" : [ 857.697937, 530.711914, 63.0, 20.0 ],
					"numoutlets" : 1,
					"outlettype" : [ "" ],
					"fontsize" : 12.0
				}

			}
, 			{
				"box" : 				{
					"maxclass" : "newobj",
					"text" : "pack 0. 0.",
					"numinlets" : 2,
					"id" : "obj-43",
					"fontname" : "Arial",
					"patching_rect" : [ 733.809937, 533.711914, 63.0, 20.0 ],
					"numoutlets" : 1,
					"outlettype" : [ "" ],
					"fontsize" : 12.0
				}

			}
, 			{
				"box" : 				{
					"maxclass" : "newobj",
					"text" : "pack 0. 0.",
					"numinlets" : 2,
					"id" : "obj-44",
					"fontname" : "Arial",
					"patching_rect" : [ 631.385925, 545.711914, 63.0, 20.0 ],
					"numoutlets" : 1,
					"outlettype" : [ "" ],
					"fontsize" : 12.0
				}

			}
, 			{
				"box" : 				{
					"maxclass" : "newobj",
					"text" : "pack 0. 0.",
					"numinlets" : 2,
					"id" : "obj-46",
					"fontname" : "Arial",
					"patching_rect" : [ 484.180969, 543.711914, 63.0, 20.0 ],
					"numoutlets" : 1,
					"outlettype" : [ "" ],
					"fontsize" : 12.0
				}

			}
, 			{
				"box" : 				{
					"maxclass" : "message",
					"text" : "0 25000",
					"numinlets" : 2,
					"id" : "obj-14",
					"fontname" : "Arial",
					"patching_rect" : [ 473.58194, 77.866989, 54.0, 18.0 ],
					"numoutlets" : 1,
					"outlettype" : [ "" ],
					"fontsize" : 12.0
				}

			}
, 			{
				"box" : 				{
					"maxclass" : "newobj",
					"text" : "t 1",
					"numinlets" : 1,
					"id" : "obj-11",
					"fontname" : "Arial",
					"patching_rect" : [ 674.0, 54.0, 24.0, 20.0 ],
					"numoutlets" : 1,
					"outlettype" : [ "int" ],
					"fontsize" : 12.0
				}

			}
, 			{
				"box" : 				{
					"maxclass" : "newobj",
					"text" : "sel 1",
					"numinlets" : 2,
					"id" : "obj-9",
					"fontname" : "Arial",
					"patching_rect" : [ 672.0, 24.0, 36.0, 20.0 ],
					"numoutlets" : 2,
					"outlettype" : [ "bang", "" ],
					"fontsize" : 12.0
				}

			}
, 			{
				"box" : 				{
					"maxclass" : "newobj",
					"text" : "sel 10 11",
					"numinlets" : 1,
					"id" : "obj-10",
					"fontname" : "Arial",
					"patching_rect" : [ 617.0, 23.0, 58.0, 20.0 ],
					"numoutlets" : 3,
					"outlettype" : [ "bang", "bang", "" ],
					"fontsize" : 12.0
				}

			}
, 			{
				"box" : 				{
					"maxclass" : "newobj",
					"text" : "r currentScene",
					"numinlets" : 0,
					"id" : "obj-6",
					"fontname" : "Arial",
					"patching_rect" : [ 616.0, 0.0, 89.0, 20.0 ],
					"numoutlets" : 1,
					"outlettype" : [ "" ],
					"fontsize" : 12.0
				}

			}
, 			{
				"box" : 				{
					"maxclass" : "comment",
					"text" : "master fade out at end of performance\ni.e. scene11",
					"linecount" : 3,
					"numinlets" : 1,
					"id" : "obj-7",
					"fontname" : "Arial",
					"patching_rect" : [ 960.0, 25.0, 150.0, 48.0 ],
					"numoutlets" : 0,
					"fontsize" : 12.0
				}

			}
, 			{
				"box" : 				{
					"maxclass" : "newobj",
					"text" : "t 1",
					"numinlets" : 1,
					"id" : "obj-8",
					"fontname" : "Arial",
					"patching_rect" : [ 332.0, 475.0, 24.0, 20.0 ],
					"numoutlets" : 1,
					"outlettype" : [ "int" ],
					"fontsize" : 12.0
				}

			}
, 			{
				"box" : 				{
					"maxclass" : "newobj",
					"text" : "delay 250",
					"numinlets" : 2,
					"id" : "obj-5",
					"fontname" : "Arial",
					"patching_rect" : [ 300.0, 450.0, 63.0, 20.0 ],
					"numoutlets" : 1,
					"outlettype" : [ "bang" ],
					"fontsize" : 12.0
				}

			}
, 			{
				"box" : 				{
					"maxclass" : "newobj",
					"text" : "sel 1",
					"numinlets" : 2,
					"id" : "obj-4",
					"fontname" : "Arial",
					"patching_rect" : [ 252.0, 53.0, 36.0, 20.0 ],
					"numoutlets" : 2,
					"outlettype" : [ "bang", "" ],
					"fontsize" : 12.0
				}

			}
, 			{
				"box" : 				{
					"maxclass" : "newobj",
					"text" : "change",
					"numinlets" : 1,
					"id" : "obj-3",
					"fontname" : "Arial",
					"patching_rect" : [ 252.0, 27.0, 50.0, 20.0 ],
					"numoutlets" : 3,
					"outlettype" : [ "", "int", "int" ],
					"fontsize" : 12.0
				}

			}
, 			{
				"box" : 				{
					"maxclass" : "newobj",
					"text" : "r abletonRangeCommComplete",
					"numinlets" : 0,
					"id" : "obj-2",
					"fontname" : "Arial",
					"patching_rect" : [ 252.0, 2.0, 179.0, 20.0 ],
					"numoutlets" : 1,
					"outlettype" : [ "" ],
					"fontsize" : 12.0
				}

			}
, 			{
				"box" : 				{
					"maxclass" : "newobj",
					"text" : "s fadeInOnFadeout",
					"numinlets" : 1,
					"id" : "obj-204",
					"fontname" : "Arial",
					"patching_rect" : [ 629.562927, 85.18399, 113.0, 20.0 ],
					"numoutlets" : 0,
					"fontsize" : 12.0
				}

			}
, 			{
				"box" : 				{
					"maxclass" : "newobj",
					"text" : "r masterFade",
					"numinlets" : 0,
					"id" : "obj-203",
					"fontname" : "Arial",
					"patching_rect" : [ 871.720886, 10.922997, 82.0, 20.0 ],
					"numoutlets" : 1,
					"outlettype" : [ "" ],
					"fontsize" : 12.0
				}

			}
, 			{
				"box" : 				{
					"maxclass" : "button",
					"numinlets" : 1,
					"id" : "obj-202",
					"patching_rect" : [ 827.86792, 43.598995, 20.0, 20.0 ],
					"numoutlets" : 1,
					"outlettype" : [ "bang" ]
				}

			}
, 			{
				"box" : 				{
					"maxclass" : "newobj",
					"text" : "line 1",
					"numinlets" : 3,
					"id" : "obj-197",
					"fontname" : "Arial",
					"patching_rect" : [ 250.227966, 561.681946, 46.0, 20.0 ],
					"numoutlets" : 2,
					"outlettype" : [ "", "" ],
					"fontsize" : 12.0
				}

			}
, 			{
				"box" : 				{
					"maxclass" : "newobj",
					"text" : "line 1",
					"numinlets" : 3,
					"id" : "obj-195",
					"fontname" : "Arial",
					"patching_rect" : [ 186.339966, 561.681946, 46.0, 20.0 ],
					"numoutlets" : 2,
					"outlettype" : [ "", "" ],
					"fontsize" : 12.0
				}

			}
, 			{
				"box" : 				{
					"maxclass" : "newobj",
					"text" : "r midiDevice",
					"numinlets" : 0,
					"id" : "obj-194",
					"fontname" : "Arial",
					"patching_rect" : [ 115.796989, 625.569946, 77.0, 20.0 ],
					"numoutlets" : 1,
					"outlettype" : [ "" ],
					"fontsize" : 12.0
				}

			}
, 			{
				"box" : 				{
					"maxclass" : "newobj",
					"text" : "ctlout 2 1",
					"numinlets" : 3,
					"id" : "obj-193",
					"fontname" : "Arial",
					"patching_rect" : [ 247.565994, 684.133911, 59.0, 20.0 ],
					"numoutlets" : 0,
					"fontsize" : 12.0
				}

			}
, 			{
				"box" : 				{
					"maxclass" : "newobj",
					"text" : "ctlout 1 1",
					"numinlets" : 3,
					"id" : "obj-192",
					"fontname" : "Arial",
					"patching_rect" : [ 183.677994, 684.133911, 59.0, 20.0 ],
					"numoutlets" : 0,
					"fontsize" : 12.0
				}

			}
, 			{
				"box" : 				{
					"maxclass" : "message",
					"text" : "0",
					"numinlets" : 2,
					"id" : "obj-182",
					"fontname" : "Arial",
					"patching_rect" : [ 202.690918, 145.824982, 32.5, 18.0 ],
					"numoutlets" : 1,
					"outlettype" : [ "" ],
					"fontsize" : 12.0
				}

			}
, 			{
				"box" : 				{
					"maxclass" : "message",
					"text" : "0, 127 1000",
					"numinlets" : 2,
					"id" : "obj-180",
					"fontname" : "Arial",
					"patching_rect" : [ 251.558975, 81.190994, 74.0, 18.0 ],
					"numoutlets" : 1,
					"outlettype" : [ "" ],
					"fontsize" : 12.0
				}

			}
, 			{
				"box" : 				{
					"maxclass" : "newobj",
					"text" : "line",
					"numinlets" : 3,
					"id" : "obj-178",
					"fontname" : "Arial",
					"patching_rect" : [ 243.199982, 102.148987, 46.0, 20.0 ],
					"numoutlets" : 2,
					"outlettype" : [ "", "" ],
					"fontsize" : 12.0
				}

			}
, 			{
				"box" : 				{
					"maxclass" : "button",
					"numinlets" : 1,
					"id" : "obj-177",
					"patching_rect" : [ 614.576904, 58.577995, 20.0, 20.0 ],
					"numoutlets" : 1,
					"outlettype" : [ "bang" ]
				}

			}
, 			{
				"box" : 				{
					"maxclass" : "message",
					"text" : "0, 100 25000",
					"numinlets" : 2,
					"id" : "obj-175",
					"fontname" : "Arial",
					"patching_rect" : [ 394.58194, 65.866989, 81.0, 18.0 ],
					"numoutlets" : 1,
					"outlettype" : [ "" ],
					"fontsize" : 12.0
				}

			}
, 			{
				"box" : 				{
					"maxclass" : "newobj",
					"text" : "line",
					"numinlets" : 3,
					"id" : "obj-173",
					"fontname" : "Arial",
					"patching_rect" : [ 435.236969, 110.472984, 46.0, 20.0 ],
					"numoutlets" : 2,
					"outlettype" : [ "", "" ],
					"fontsize" : 12.0
				}

			}
, 			{
				"box" : 				{
					"maxclass" : "number",
					"numinlets" : 1,
					"id" : "obj-160",
					"fontname" : "Arial",
					"patching_rect" : [ 1105.137939, 516.711914, 50.0, 20.0 ],
					"numoutlets" : 2,
					"outlettype" : [ "int", "bang" ],
					"fontsize" : 12.0
				}

			}
, 			{
				"box" : 				{
					"maxclass" : "number",
					"numinlets" : 1,
					"id" : "obj-158",
					"fontname" : "Arial",
					"patching_rect" : [ 964.079834, 516.711914, 50.0, 20.0 ],
					"numoutlets" : 2,
					"outlettype" : [ "int", "bang" ],
					"fontsize" : 12.0
				}

			}
, 			{
				"box" : 				{
					"maxclass" : "number",
					"numinlets" : 1,
					"id" : "obj-156",
					"fontname" : "Arial",
					"patching_rect" : [ 828.697937, 516.711914, 50.0, 20.0 ],
					"numoutlets" : 2,
					"outlettype" : [ "int", "bang" ],
					"fontsize" : 12.0
				}

			}
, 			{
				"box" : 				{
					"maxclass" : "number",
					"numinlets" : 1,
					"id" : "obj-154",
					"fontname" : "Arial",
					"patching_rect" : [ 704.809937, 516.711914, 50.0, 20.0 ],
					"numoutlets" : 2,
					"outlettype" : [ "int", "bang" ],
					"fontsize" : 12.0
				}

			}
, 			{
				"box" : 				{
					"maxclass" : "number",
					"numinlets" : 1,
					"id" : "obj-152",
					"fontname" : "Arial",
					"patching_rect" : [ 602.385925, 516.711914, 50.0, 20.0 ],
					"numoutlets" : 2,
					"outlettype" : [ "int", "bang" ],
					"fontsize" : 12.0
				}

			}
, 			{
				"box" : 				{
					"maxclass" : "number",
					"numinlets" : 1,
					"id" : "obj-150",
					"fontname" : "Arial",
					"patching_rect" : [ 455.180939, 516.711914, 50.0, 20.0 ],
					"numoutlets" : 2,
					"outlettype" : [ "int", "bang" ],
					"fontsize" : 12.0
				}

			}
, 			{
				"box" : 				{
					"maxclass" : "newobj",
					"text" : "line 1",
					"numinlets" : 3,
					"id" : "obj-144",
					"fontname" : "Arial",
					"patching_rect" : [ 1082.102783, 631.681946, 46.0, 20.0 ],
					"numoutlets" : 2,
					"outlettype" : [ "", "" ],
					"fontsize" : 12.0
				}

			}
, 			{
				"box" : 				{
					"maxclass" : "newobj",
					"text" : "r midiDevice",
					"numinlets" : 0,
					"id" : "obj-145",
					"fontname" : "Arial",
					"patching_rect" : [ 1004.904907, 649.527954, 77.0, 20.0 ],
					"numoutlets" : 1,
					"outlettype" : [ "" ],
					"fontsize" : 12.0
				}

			}
, 			{
				"box" : 				{
					"maxclass" : "newobj",
					"text" : "ctlout 8 3",
					"numinlets" : 3,
					"id" : "obj-146",
					"fontname" : "Arial",
					"patching_rect" : [ 1080.771851, 686.795898, 59.0, 20.0 ],
					"numoutlets" : 0,
					"fontsize" : 12.0
				}

			}
, 			{
				"box" : 				{
					"maxclass" : "newobj",
					"text" : "line 1",
					"numinlets" : 3,
					"id" : "obj-139",
					"fontname" : "Arial",
					"patching_rect" : [ 954.326843, 631.681946, 46.0, 20.0 ],
					"numoutlets" : 2,
					"outlettype" : [ "", "" ],
					"fontsize" : 12.0
				}

			}
, 			{
				"box" : 				{
					"maxclass" : "newobj",
					"text" : "r midiDevice",
					"numinlets" : 0,
					"id" : "obj-140",
					"fontname" : "Arial",
					"patching_rect" : [ 877.128906, 649.527954, 77.0, 20.0 ],
					"numoutlets" : 1,
					"outlettype" : [ "" ],
					"fontsize" : 12.0
				}

			}
, 			{
				"box" : 				{
					"maxclass" : "newobj",
					"text" : "ctlout 7 3",
					"numinlets" : 3,
					"id" : "obj-141",
					"fontname" : "Arial",
					"patching_rect" : [ 952.99585, 686.795898, 59.0, 20.0 ],
					"numoutlets" : 0,
					"fontsize" : 12.0
				}

			}
, 			{
				"box" : 				{
					"maxclass" : "newobj",
					"text" : "line 1",
					"numinlets" : 3,
					"id" : "obj-134",
					"fontname" : "Arial",
					"patching_rect" : [ 826.550903, 631.681946, 46.0, 20.0 ],
					"numoutlets" : 2,
					"outlettype" : [ "", "" ],
					"fontsize" : 12.0
				}

			}
, 			{
				"box" : 				{
					"maxclass" : "newobj",
					"text" : "r midiDevice",
					"numinlets" : 0,
					"id" : "obj-135",
					"fontname" : "Arial",
					"patching_rect" : [ 749.352966, 649.527954, 77.0, 20.0 ],
					"numoutlets" : 1,
					"outlettype" : [ "" ],
					"fontsize" : 12.0
				}

			}
, 			{
				"box" : 				{
					"maxclass" : "newobj",
					"text" : "ctlout 6 3",
					"numinlets" : 3,
					"id" : "obj-136",
					"fontname" : "Arial",
					"patching_rect" : [ 825.219849, 686.795898, 59.0, 20.0 ],
					"numoutlets" : 0,
					"fontsize" : 12.0
				}

			}
, 			{
				"box" : 				{
					"maxclass" : "newobj",
					"text" : "line 1",
					"numinlets" : 3,
					"id" : "obj-129",
					"fontname" : "Arial",
					"patching_rect" : [ 698.774902, 631.681946, 46.0, 20.0 ],
					"numoutlets" : 2,
					"outlettype" : [ "", "" ],
					"fontsize" : 12.0
				}

			}
, 			{
				"box" : 				{
					"maxclass" : "newobj",
					"text" : "r midiDevice",
					"numinlets" : 0,
					"id" : "obj-130",
					"fontname" : "Arial",
					"patching_rect" : [ 621.576965, 649.527954, 77.0, 20.0 ],
					"numoutlets" : 1,
					"outlettype" : [ "" ],
					"fontsize" : 12.0
				}

			}
, 			{
				"box" : 				{
					"maxclass" : "newobj",
					"text" : "ctlout 5 3",
					"numinlets" : 3,
					"id" : "obj-131",
					"fontname" : "Arial",
					"patching_rect" : [ 697.443848, 686.795898, 59.0, 20.0 ],
					"numoutlets" : 0,
					"fontsize" : 12.0
				}

			}
, 			{
				"box" : 				{
					"maxclass" : "newobj",
					"text" : "line 1",
					"numinlets" : 3,
					"id" : "obj-124",
					"fontname" : "Arial",
					"patching_rect" : [ 570.998901, 631.681946, 46.0, 20.0 ],
					"numoutlets" : 2,
					"outlettype" : [ "", "" ],
					"fontsize" : 12.0
				}

			}
, 			{
				"box" : 				{
					"maxclass" : "newobj",
					"text" : "r midiDevice",
					"numinlets" : 0,
					"id" : "obj-125",
					"fontname" : "Arial",
					"patching_rect" : [ 493.800934, 649.527954, 77.0, 20.0 ],
					"numoutlets" : 1,
					"outlettype" : [ "" ],
					"fontsize" : 12.0
				}

			}
, 			{
				"box" : 				{
					"maxclass" : "newobj",
					"text" : "ctlout 4 3",
					"numinlets" : 3,
					"id" : "obj-126",
					"fontname" : "Arial",
					"patching_rect" : [ 569.667908, 686.795898, 59.0, 20.0 ],
					"numoutlets" : 0,
					"fontsize" : 12.0
				}

			}
, 			{
				"box" : 				{
					"maxclass" : "newobj",
					"text" : "line 1",
					"numinlets" : 3,
					"id" : "obj-119",
					"fontname" : "Arial",
					"patching_rect" : [ 443.222931, 631.681946, 46.0, 20.0 ],
					"numoutlets" : 2,
					"outlettype" : [ "", "" ],
					"fontsize" : 12.0
				}

			}
, 			{
				"box" : 				{
					"maxclass" : "newobj",
					"text" : "r midiDevice",
					"numinlets" : 0,
					"id" : "obj-120",
					"fontname" : "Arial",
					"patching_rect" : [ 366.024963, 649.527954, 77.0, 20.0 ],
					"numoutlets" : 1,
					"outlettype" : [ "" ],
					"fontsize" : 12.0
				}

			}
, 			{
				"box" : 				{
					"maxclass" : "newobj",
					"text" : "ctlout 3 3",
					"numinlets" : 3,
					"id" : "obj-121",
					"fontname" : "Arial",
					"patching_rect" : [ 441.891937, 686.795898, 59.0, 20.0 ],
					"numoutlets" : 0,
					"fontsize" : 12.0
				}

			}
, 			{
				"box" : 				{
					"maxclass" : "newobj",
					"text" : "send beginFades",
					"numinlets" : 1,
					"id" : "obj-96",
					"fontname" : "Arial",
					"patching_rect" : [ 26.0, 80.0, 103.0, 20.0 ],
					"numoutlets" : 0,
					"fontsize" : 12.0
				}

			}
, 			{
				"box" : 				{
					"maxclass" : "newobj",
					"text" : "== 10",
					"numinlets" : 2,
					"id" : "obj-95",
					"fontname" : "Arial",
					"patching_rect" : [ 26.0, 52.0, 41.0, 20.0 ],
					"numoutlets" : 1,
					"outlettype" : [ "int" ],
					"fontsize" : 12.0
				}

			}
, 			{
				"box" : 				{
					"maxclass" : "newobj",
					"text" : "r currentScene",
					"numinlets" : 0,
					"id" : "obj-94",
					"fontname" : "Arial",
					"patching_rect" : [ 26.0, 23.0, 89.0, 20.0 ],
					"numoutlets" : 1,
					"outlettype" : [ "" ],
					"fontsize" : 12.0
				}

			}
, 			{
				"box" : 				{
					"maxclass" : "comment",
					"text" : "ch8 sends",
					"numinlets" : 1,
					"id" : "obj-93",
					"fontname" : "Arial",
					"patching_rect" : [ 921.0, 346.506012, 150.0, 20.0 ],
					"numoutlets" : 0,
					"fontsize" : 12.0
				}

			}
, 			{
				"box" : 				{
					"maxclass" : "comment",
					"text" : "ch7 sends",
					"numinlets" : 1,
					"id" : "obj-91",
					"fontname" : "Arial",
					"patching_rect" : [ 626.0, 350.506012, 150.0, 20.0 ],
					"numoutlets" : 0,
					"fontsize" : 12.0
				}

			}
, 			{
				"box" : 				{
					"maxclass" : "comment",
					"text" : "ch6 sends",
					"numinlets" : 1,
					"id" : "obj-89",
					"fontname" : "Arial",
					"patching_rect" : [ 326.0, 348.506012, 150.0, 20.0 ],
					"numoutlets" : 0,
					"fontsize" : 12.0
				}

			}
, 			{
				"box" : 				{
					"maxclass" : "comment",
					"text" : "ch5 sends",
					"numinlets" : 1,
					"id" : "obj-87",
					"fontname" : "Arial",
					"patching_rect" : [ 35.0, 352.506012, 150.0, 20.0 ],
					"numoutlets" : 0,
					"fontsize" : 12.0
				}

			}
, 			{
				"box" : 				{
					"maxclass" : "comment",
					"text" : "ch4 sends",
					"numinlets" : 1,
					"id" : "obj-85",
					"fontname" : "Arial",
					"patching_rect" : [ 916.0, 180.0, 150.0, 20.0 ],
					"numoutlets" : 0,
					"fontsize" : 12.0
				}

			}
, 			{
				"box" : 				{
					"maxclass" : "comment",
					"text" : "ch3 sends",
					"numinlets" : 1,
					"id" : "obj-83",
					"fontname" : "Arial",
					"patching_rect" : [ 622.0, 179.0, 150.0, 20.0 ],
					"numoutlets" : 0,
					"fontsize" : 12.0
				}

			}
, 			{
				"box" : 				{
					"maxclass" : "comment",
					"text" : "ch sends",
					"numinlets" : 1,
					"id" : "obj-81",
					"fontname" : "Arial",
					"patching_rect" : [ 324.0, 172.0, 150.0, 20.0 ],
					"numoutlets" : 0,
					"fontsize" : 12.0
				}

			}
, 			{
				"box" : 				{
					"maxclass" : "comment",
					"text" : "ch1 sends",
					"numinlets" : 1,
					"id" : "obj-80",
					"fontname" : "Arial",
					"patching_rect" : [ 36.0, 172.0, 150.0, 20.0 ],
					"numoutlets" : 0,
					"fontsize" : 12.0
				}

			}
, 			{
				"box" : 				{
					"maxclass" : "newobj",
					"text" : "r midiDevice",
					"numinlets" : 0,
					"id" : "obj-69",
					"fontname" : "Arial",
					"patching_rect" : [ 1017.0, 363.506012, 77.0, 20.0 ],
					"numoutlets" : 1,
					"outlettype" : [ "" ],
					"fontsize" : 12.0
				}

			}
, 			{
				"box" : 				{
					"maxclass" : "newobj",
					"text" : "ctlout 16 2",
					"numinlets" : 3,
					"id" : "obj-72",
					"fontname" : "Arial",
					"patching_rect" : [ 1018.0, 392.506012, 66.0, 20.0 ],
					"numoutlets" : 0,
					"fontsize" : 12.0
				}

			}
, 			{
				"box" : 				{
					"maxclass" : "newobj",
					"text" : "r midiDevice",
					"numinlets" : 0,
					"id" : "obj-73",
					"fontname" : "Arial",
					"patching_rect" : [ 923.0, 363.506012, 77.0, 20.0 ],
					"numoutlets" : 1,
					"outlettype" : [ "" ],
					"fontsize" : 12.0
				}

			}
, 			{
				"box" : 				{
					"maxclass" : "newobj",
					"text" : "ctlout 15 2",
					"numinlets" : 3,
					"id" : "obj-76",
					"fontname" : "Arial",
					"patching_rect" : [ 923.0, 393.506012, 66.0, 20.0 ],
					"numoutlets" : 0,
					"fontsize" : 12.0
				}

			}
, 			{
				"box" : 				{
					"maxclass" : "newobj",
					"text" : "r midiDevice",
					"numinlets" : 0,
					"id" : "obj-61",
					"fontname" : "Arial",
					"patching_rect" : [ 714.0, 365.506012, 77.0, 20.0 ],
					"numoutlets" : 1,
					"outlettype" : [ "" ],
					"fontsize" : 12.0
				}

			}
, 			{
				"box" : 				{
					"maxclass" : "newobj",
					"text" : "ctlout 14 2",
					"numinlets" : 3,
					"id" : "obj-64",
					"fontname" : "Arial",
					"patching_rect" : [ 714.0, 395.506012, 66.0, 20.0 ],
					"numoutlets" : 0,
					"fontsize" : 12.0
				}

			}
, 			{
				"box" : 				{
					"maxclass" : "newobj",
					"text" : "r midiDevice",
					"numinlets" : 0,
					"id" : "obj-65",
					"fontname" : "Arial",
					"patching_rect" : [ 620.0, 365.506012, 77.0, 20.0 ],
					"numoutlets" : 1,
					"outlettype" : [ "" ],
					"fontsize" : 12.0
				}

			}
, 			{
				"box" : 				{
					"maxclass" : "newobj",
					"text" : "ctlout 13 2",
					"numinlets" : 3,
					"id" : "obj-68",
					"fontname" : "Arial",
					"patching_rect" : [ 620.0, 395.506012, 66.0, 20.0 ],
					"numoutlets" : 0,
					"fontsize" : 12.0
				}

			}
, 			{
				"box" : 				{
					"maxclass" : "newobj",
					"text" : "r midiDevice",
					"numinlets" : 0,
					"id" : "obj-53",
					"fontname" : "Arial",
					"patching_rect" : [ 413.0, 365.506012, 77.0, 20.0 ],
					"numoutlets" : 1,
					"outlettype" : [ "" ],
					"fontsize" : 12.0
				}

			}
, 			{
				"box" : 				{
					"maxclass" : "newobj",
					"text" : "ctlout 12 2",
					"numinlets" : 3,
					"id" : "obj-56",
					"fontname" : "Arial",
					"patching_rect" : [ 413.0, 395.506012, 66.0, 20.0 ],
					"numoutlets" : 0,
					"fontsize" : 12.0
				}

			}
, 			{
				"box" : 				{
					"maxclass" : "newobj",
					"text" : "r midiDevice",
					"numinlets" : 0,
					"id" : "obj-57",
					"fontname" : "Arial",
					"patching_rect" : [ 319.0, 365.506012, 77.0, 20.0 ],
					"numoutlets" : 1,
					"outlettype" : [ "" ],
					"fontsize" : 12.0
				}

			}
, 			{
				"box" : 				{
					"maxclass" : "newobj",
					"text" : "ctlout 11 2",
					"numinlets" : 3,
					"id" : "obj-60",
					"fontname" : "Arial",
					"patching_rect" : [ 319.0, 395.506012, 65.0, 20.0 ],
					"numoutlets" : 0,
					"fontsize" : 12.0
				}

			}
, 			{
				"box" : 				{
					"maxclass" : "newobj",
					"text" : "r midiDevice",
					"numinlets" : 0,
					"id" : "obj-45",
					"fontname" : "Arial",
					"patching_rect" : [ 125.0, 365.506012, 77.0, 20.0 ],
					"numoutlets" : 1,
					"outlettype" : [ "" ],
					"fontsize" : 12.0
				}

			}
, 			{
				"box" : 				{
					"maxclass" : "newobj",
					"text" : "ctlout 10 2",
					"numinlets" : 3,
					"id" : "obj-48",
					"fontname" : "Arial",
					"patching_rect" : [ 125.0, 395.506012, 66.0, 20.0 ],
					"numoutlets" : 0,
					"fontsize" : 12.0
				}

			}
, 			{
				"box" : 				{
					"maxclass" : "newobj",
					"text" : "r midiDevice",
					"numinlets" : 0,
					"id" : "obj-49",
					"fontname" : "Arial",
					"patching_rect" : [ 31.0, 365.506012, 77.0, 20.0 ],
					"numoutlets" : 1,
					"outlettype" : [ "" ],
					"fontsize" : 12.0
				}

			}
, 			{
				"box" : 				{
					"maxclass" : "newobj",
					"text" : "ctlout 9 2",
					"numinlets" : 3,
					"id" : "obj-52",
					"fontname" : "Arial",
					"patching_rect" : [ 31.0, 395.506012, 59.0, 20.0 ],
					"numoutlets" : 0,
					"fontsize" : 12.0
				}

			}
, 			{
				"box" : 				{
					"maxclass" : "newobj",
					"text" : "r midiDevice",
					"numinlets" : 0,
					"id" : "obj-37",
					"fontname" : "Arial",
					"patching_rect" : [ 1010.0, 194.0, 77.0, 20.0 ],
					"numoutlets" : 1,
					"outlettype" : [ "" ],
					"fontsize" : 12.0
				}

			}
, 			{
				"box" : 				{
					"maxclass" : "newobj",
					"text" : "ctlout 8 2",
					"numinlets" : 3,
					"id" : "obj-40",
					"fontname" : "Arial",
					"patching_rect" : [ 1010.0, 224.0, 59.0, 20.0 ],
					"numoutlets" : 0,
					"fontsize" : 12.0
				}

			}
, 			{
				"box" : 				{
					"maxclass" : "newobj",
					"text" : "r midiDevice",
					"numinlets" : 0,
					"id" : "obj-33",
					"fontname" : "Arial",
					"patching_rect" : [ 916.0, 194.0, 77.0, 20.0 ],
					"numoutlets" : 1,
					"outlettype" : [ "" ],
					"fontsize" : 12.0
				}

			}
, 			{
				"box" : 				{
					"maxclass" : "newobj",
					"text" : "ctlout 7 2",
					"numinlets" : 3,
					"id" : "obj-36",
					"fontname" : "Arial",
					"patching_rect" : [ 916.0, 224.0, 59.0, 20.0 ],
					"numoutlets" : 0,
					"fontsize" : 12.0
				}

			}
, 			{
				"box" : 				{
					"maxclass" : "newobj",
					"text" : "r midiDevice",
					"numinlets" : 0,
					"id" : "obj-29",
					"fontname" : "Arial",
					"patching_rect" : [ 714.0, 194.0, 77.0, 20.0 ],
					"numoutlets" : 1,
					"outlettype" : [ "" ],
					"fontsize" : 12.0
				}

			}
, 			{
				"box" : 				{
					"maxclass" : "newobj",
					"text" : "ctlout 6 2",
					"numinlets" : 3,
					"id" : "obj-32",
					"fontname" : "Arial",
					"patching_rect" : [ 714.0, 224.0, 59.0, 20.0 ],
					"numoutlets" : 0,
					"fontsize" : 12.0
				}

			}
, 			{
				"box" : 				{
					"maxclass" : "newobj",
					"text" : "r midiDevice",
					"numinlets" : 0,
					"id" : "obj-25",
					"fontname" : "Arial",
					"patching_rect" : [ 620.0, 194.0, 77.0, 20.0 ],
					"numoutlets" : 1,
					"outlettype" : [ "" ],
					"fontsize" : 12.0
				}

			}
, 			{
				"box" : 				{
					"maxclass" : "newobj",
					"text" : "ctlout 5 2",
					"numinlets" : 3,
					"id" : "obj-28",
					"fontname" : "Arial",
					"patching_rect" : [ 620.0, 225.0, 59.0, 20.0 ],
					"numoutlets" : 0,
					"fontsize" : 12.0
				}

			}
, 			{
				"box" : 				{
					"maxclass" : "newobj",
					"text" : "r midiDevice",
					"numinlets" : 0,
					"id" : "obj-21",
					"fontname" : "Arial",
					"patching_rect" : [ 419.0, 194.0, 77.0, 20.0 ],
					"numoutlets" : 1,
					"outlettype" : [ "" ],
					"fontsize" : 12.0
				}

			}
, 			{
				"box" : 				{
					"maxclass" : "newobj",
					"text" : "ctlout 4 2",
					"numinlets" : 3,
					"id" : "obj-24",
					"fontname" : "Arial",
					"patching_rect" : [ 419.0, 224.0, 59.0, 20.0 ],
					"numoutlets" : 0,
					"fontsize" : 12.0
				}

			}
, 			{
				"box" : 				{
					"maxclass" : "newobj",
					"text" : "r midiDevice",
					"numinlets" : 0,
					"id" : "obj-17",
					"fontname" : "Arial",
					"patching_rect" : [ 325.0, 194.0, 77.0, 20.0 ],
					"numoutlets" : 1,
					"outlettype" : [ "" ],
					"fontsize" : 12.0
				}

			}
, 			{
				"box" : 				{
					"maxclass" : "newobj",
					"text" : "ctlout 3 2",
					"numinlets" : 3,
					"id" : "obj-20",
					"fontname" : "Arial",
					"patching_rect" : [ 325.0, 224.0, 59.0, 20.0 ],
					"numoutlets" : 0,
					"fontsize" : 12.0
				}

			}
, 			{
				"box" : 				{
					"maxclass" : "newobj",
					"text" : "r midiDevice",
					"numinlets" : 0,
					"id" : "obj-13",
					"fontname" : "Arial",
					"patching_rect" : [ 124.0, 194.0, 77.0, 20.0 ],
					"numoutlets" : 1,
					"outlettype" : [ "" ],
					"fontsize" : 12.0
				}

			}
, 			{
				"box" : 				{
					"maxclass" : "newobj",
					"text" : "ctlout 2 2",
					"numinlets" : 3,
					"id" : "obj-16",
					"fontname" : "Arial",
					"patching_rect" : [ 124.0, 224.0, 59.0, 20.0 ],
					"numoutlets" : 0,
					"fontsize" : 12.0
				}

			}
, 			{
				"box" : 				{
					"maxclass" : "newobj",
					"text" : "r midiDevice",
					"numinlets" : 0,
					"id" : "obj-12",
					"fontname" : "Arial",
					"patching_rect" : [ 30.0, 194.0, 77.0, 20.0 ],
					"numoutlets" : 1,
					"outlettype" : [ "" ],
					"fontsize" : 12.0
				}

			}
, 			{
				"box" : 				{
					"maxclass" : "newobj",
					"text" : "ctlout 1 2",
					"numinlets" : 3,
					"id" : "obj-1",
					"fontname" : "Arial",
					"patching_rect" : [ 30.0, 224.0, 59.0, 20.0 ],
					"numoutlets" : 0,
					"fontsize" : 12.0
				}

			}
 ],
		"lines" : [ 			{
				"patchline" : 				{
					"source" : [ "obj-11", 0 ],
					"destination" : [ "obj-26", 0 ],
					"hidden" : 0,
					"midpoints" : [  ]
				}

			}
, 			{
				"patchline" : 				{
					"source" : [ "obj-6", 0 ],
					"destination" : [ "obj-26", 0 ],
					"hidden" : 0,
					"midpoints" : [  ]
				}

			}
, 			{
				"patchline" : 				{
					"source" : [ "obj-8", 0 ],
					"destination" : [ "obj-26", 0 ],
					"hidden" : 0,
					"midpoints" : [  ]
				}

			}
, 			{
				"patchline" : 				{
					"source" : [ "obj-195", 0 ],
					"destination" : [ "obj-192", 0 ],
					"hidden" : 0,
					"midpoints" : [  ]
				}

			}
, 			{
				"patchline" : 				{
					"source" : [ "obj-197", 0 ],
					"destination" : [ "obj-193", 0 ],
					"hidden" : 0,
					"midpoints" : [  ]
				}

			}
, 			{
				"patchline" : 				{
					"source" : [ "obj-15", 0 ],
					"destination" : [ "obj-197", 0 ],
					"hidden" : 0,
					"midpoints" : [  ]
				}

			}
, 			{
				"patchline" : 				{
					"source" : [ "obj-15", 0 ],
					"destination" : [ "obj-195", 0 ],
					"hidden" : 0,
					"midpoints" : [  ]
				}

			}
, 			{
				"patchline" : 				{
					"source" : [ "obj-23", 0 ],
					"destination" : [ "obj-15", 0 ],
					"hidden" : 0,
					"midpoints" : [  ]
				}

			}
, 			{
				"patchline" : 				{
					"source" : [ "obj-19", 0 ],
					"destination" : [ "obj-15", 1 ],
					"hidden" : 0,
					"midpoints" : [  ]
				}

			}
, 			{
				"patchline" : 				{
					"source" : [ "obj-144", 0 ],
					"destination" : [ "obj-146", 0 ],
					"hidden" : 0,
					"midpoints" : [  ]
				}

			}
, 			{
				"patchline" : 				{
					"source" : [ "obj-139", 0 ],
					"destination" : [ "obj-141", 0 ],
					"hidden" : 0,
					"midpoints" : [  ]
				}

			}
, 			{
				"patchline" : 				{
					"source" : [ "obj-134", 0 ],
					"destination" : [ "obj-136", 0 ],
					"hidden" : 0,
					"midpoints" : [  ]
				}

			}
, 			{
				"patchline" : 				{
					"source" : [ "obj-129", 0 ],
					"destination" : [ "obj-131", 0 ],
					"hidden" : 0,
					"midpoints" : [  ]
				}

			}
, 			{
				"patchline" : 				{
					"source" : [ "obj-124", 0 ],
					"destination" : [ "obj-126", 0 ],
					"hidden" : 0,
					"midpoints" : [  ]
				}

			}
, 			{
				"patchline" : 				{
					"source" : [ "obj-119", 0 ],
					"destination" : [ "obj-121", 0 ],
					"hidden" : 0,
					"midpoints" : [  ]
				}

			}
, 			{
				"patchline" : 				{
					"source" : [ "obj-14", 0 ],
					"destination" : [ "obj-173", 0 ],
					"hidden" : 0,
					"midpoints" : [  ]
				}

			}
, 			{
				"patchline" : 				{
					"source" : [ "obj-202", 0 ],
					"destination" : [ "obj-14", 0 ],
					"hidden" : 0,
					"midpoints" : [  ]
				}

			}
, 			{
				"patchline" : 				{
					"source" : [ "obj-6", 0 ],
					"destination" : [ "obj-10", 0 ],
					"hidden" : 0,
					"midpoints" : [  ]
				}

			}
, 			{
				"patchline" : 				{
					"source" : [ "obj-10", 0 ],
					"destination" : [ "obj-177", 0 ],
					"hidden" : 0,
					"midpoints" : [  ]
				}

			}
, 			{
				"patchline" : 				{
					"source" : [ "obj-9", 0 ],
					"destination" : [ "obj-11", 0 ],
					"hidden" : 0,
					"midpoints" : [  ]
				}

			}
, 			{
				"patchline" : 				{
					"source" : [ "obj-6", 0 ],
					"destination" : [ "obj-9", 0 ],
					"hidden" : 0,
					"midpoints" : [  ]
				}

			}
, 			{
				"patchline" : 				{
					"source" : [ "obj-5", 0 ],
					"destination" : [ "obj-8", 0 ],
					"hidden" : 0,
					"midpoints" : [  ]
				}

			}
, 			{
				"patchline" : 				{
					"source" : [ "obj-177", 0 ],
					"destination" : [ "obj-204", 0 ],
					"hidden" : 0,
					"midpoints" : [  ]
				}

			}
, 			{
				"patchline" : 				{
					"source" : [ "obj-178", 1 ],
					"destination" : [ "obj-182", 0 ],
					"hidden" : 0,
					"midpoints" : [  ]
				}

			}
, 			{
				"patchline" : 				{
					"source" : [ "obj-178", 0 ],
					"destination" : [ "obj-193", 0 ],
					"hidden" : 0,
					"midpoints" : [  ]
				}

			}
, 			{
				"patchline" : 				{
					"source" : [ "obj-178", 0 ],
					"destination" : [ "obj-192", 0 ],
					"hidden" : 0,
					"midpoints" : [  ]
				}

			}
, 			{
				"patchline" : 				{
					"source" : [ "obj-203", 0 ],
					"destination" : [ "obj-202", 0 ],
					"hidden" : 0,
					"midpoints" : [  ]
				}

			}
, 			{
				"patchline" : 				{
					"source" : [ "obj-194", 0 ],
					"destination" : [ "obj-193", 0 ],
					"hidden" : 0,
					"midpoints" : [  ]
				}

			}
, 			{
				"patchline" : 				{
					"source" : [ "obj-194", 0 ],
					"destination" : [ "obj-192", 0 ],
					"hidden" : 0,
					"midpoints" : [  ]
				}

			}
, 			{
				"patchline" : 				{
					"source" : [ "obj-182", 0 ],
					"destination" : [ "obj-72", 0 ],
					"hidden" : 0,
					"midpoints" : [  ]
				}

			}
, 			{
				"patchline" : 				{
					"source" : [ "obj-182", 0 ],
					"destination" : [ "obj-76", 0 ],
					"hidden" : 0,
					"midpoints" : [  ]
				}

			}
, 			{
				"patchline" : 				{
					"source" : [ "obj-182", 0 ],
					"destination" : [ "obj-64", 0 ],
					"hidden" : 0,
					"midpoints" : [  ]
				}

			}
, 			{
				"patchline" : 				{
					"source" : [ "obj-182", 0 ],
					"destination" : [ "obj-68", 0 ],
					"hidden" : 0,
					"midpoints" : [  ]
				}

			}
, 			{
				"patchline" : 				{
					"source" : [ "obj-182", 0 ],
					"destination" : [ "obj-56", 0 ],
					"hidden" : 0,
					"midpoints" : [  ]
				}

			}
, 			{
				"patchline" : 				{
					"source" : [ "obj-182", 0 ],
					"destination" : [ "obj-60", 0 ],
					"hidden" : 0,
					"midpoints" : [  ]
				}

			}
, 			{
				"patchline" : 				{
					"source" : [ "obj-182", 0 ],
					"destination" : [ "obj-48", 0 ],
					"hidden" : 0,
					"midpoints" : [  ]
				}

			}
, 			{
				"patchline" : 				{
					"source" : [ "obj-182", 0 ],
					"destination" : [ "obj-52", 0 ],
					"hidden" : 0,
					"midpoints" : [  ]
				}

			}
, 			{
				"patchline" : 				{
					"source" : [ "obj-182", 0 ],
					"destination" : [ "obj-40", 0 ],
					"hidden" : 0,
					"midpoints" : [  ]
				}

			}
, 			{
				"patchline" : 				{
					"source" : [ "obj-182", 0 ],
					"destination" : [ "obj-36", 0 ],
					"hidden" : 0,
					"midpoints" : [  ]
				}

			}
, 			{
				"patchline" : 				{
					"source" : [ "obj-182", 0 ],
					"destination" : [ "obj-32", 0 ],
					"hidden" : 0,
					"midpoints" : [  ]
				}

			}
, 			{
				"patchline" : 				{
					"source" : [ "obj-182", 0 ],
					"destination" : [ "obj-28", 0 ],
					"hidden" : 0,
					"midpoints" : [  ]
				}

			}
, 			{
				"patchline" : 				{
					"source" : [ "obj-182", 0 ],
					"destination" : [ "obj-24", 0 ],
					"hidden" : 0,
					"midpoints" : [  ]
				}

			}
, 			{
				"patchline" : 				{
					"source" : [ "obj-182", 0 ],
					"destination" : [ "obj-20", 0 ],
					"hidden" : 0,
					"midpoints" : [  ]
				}

			}
, 			{
				"patchline" : 				{
					"source" : [ "obj-182", 0 ],
					"destination" : [ "obj-16", 0 ],
					"hidden" : 0,
					"midpoints" : [  ]
				}

			}
, 			{
				"patchline" : 				{
					"source" : [ "obj-182", 0 ],
					"destination" : [ "obj-1", 0 ],
					"hidden" : 0,
					"midpoints" : [  ]
				}

			}
, 			{
				"patchline" : 				{
					"source" : [ "obj-178", 0 ],
					"destination" : [ "obj-146", 0 ],
					"hidden" : 0,
					"midpoints" : [  ]
				}

			}
, 			{
				"patchline" : 				{
					"source" : [ "obj-178", 0 ],
					"destination" : [ "obj-141", 0 ],
					"hidden" : 0,
					"midpoints" : [  ]
				}

			}
, 			{
				"patchline" : 				{
					"source" : [ "obj-178", 0 ],
					"destination" : [ "obj-136", 0 ],
					"hidden" : 0,
					"midpoints" : [  ]
				}

			}
, 			{
				"patchline" : 				{
					"source" : [ "obj-178", 0 ],
					"destination" : [ "obj-131", 0 ],
					"hidden" : 0,
					"midpoints" : [  ]
				}

			}
, 			{
				"patchline" : 				{
					"source" : [ "obj-178", 0 ],
					"destination" : [ "obj-126", 0 ],
					"hidden" : 0,
					"midpoints" : [  ]
				}

			}
, 			{
				"patchline" : 				{
					"source" : [ "obj-178", 0 ],
					"destination" : [ "obj-121", 0 ],
					"hidden" : 0,
					"midpoints" : [  ]
				}

			}
, 			{
				"patchline" : 				{
					"source" : [ "obj-178", 0 ],
					"destination" : [ "obj-52", 0 ],
					"hidden" : 0,
					"midpoints" : [  ]
				}

			}
, 			{
				"patchline" : 				{
					"source" : [ "obj-178", 0 ],
					"destination" : [ "obj-48", 0 ],
					"hidden" : 0,
					"midpoints" : [  ]
				}

			}
, 			{
				"patchline" : 				{
					"source" : [ "obj-178", 0 ],
					"destination" : [ "obj-60", 0 ],
					"hidden" : 0,
					"midpoints" : [  ]
				}

			}
, 			{
				"patchline" : 				{
					"source" : [ "obj-178", 0 ],
					"destination" : [ "obj-56", 0 ],
					"hidden" : 0,
					"midpoints" : [  ]
				}

			}
, 			{
				"patchline" : 				{
					"source" : [ "obj-178", 0 ],
					"destination" : [ "obj-68", 0 ],
					"hidden" : 0,
					"midpoints" : [  ]
				}

			}
, 			{
				"patchline" : 				{
					"source" : [ "obj-178", 0 ],
					"destination" : [ "obj-64", 0 ],
					"hidden" : 0,
					"midpoints" : [  ]
				}

			}
, 			{
				"patchline" : 				{
					"source" : [ "obj-178", 0 ],
					"destination" : [ "obj-76", 0 ],
					"hidden" : 0,
					"midpoints" : [  ]
				}

			}
, 			{
				"patchline" : 				{
					"source" : [ "obj-178", 0 ],
					"destination" : [ "obj-72", 0 ],
					"hidden" : 0,
					"midpoints" : [  ]
				}

			}
, 			{
				"patchline" : 				{
					"source" : [ "obj-178", 0 ],
					"destination" : [ "obj-40", 0 ],
					"hidden" : 0,
					"midpoints" : [  ]
				}

			}
, 			{
				"patchline" : 				{
					"source" : [ "obj-178", 0 ],
					"destination" : [ "obj-36", 0 ],
					"hidden" : 0,
					"midpoints" : [  ]
				}

			}
, 			{
				"patchline" : 				{
					"source" : [ "obj-178", 0 ],
					"destination" : [ "obj-32", 0 ],
					"hidden" : 0,
					"midpoints" : [  ]
				}

			}
, 			{
				"patchline" : 				{
					"source" : [ "obj-178", 0 ],
					"destination" : [ "obj-28", 0 ],
					"hidden" : 0,
					"midpoints" : [  ]
				}

			}
, 			{
				"patchline" : 				{
					"source" : [ "obj-180", 0 ],
					"destination" : [ "obj-178", 0 ],
					"hidden" : 0,
					"midpoints" : [  ]
				}

			}
, 			{
				"patchline" : 				{
					"source" : [ "obj-177", 0 ],
					"destination" : [ "obj-175", 0 ],
					"hidden" : 0,
					"midpoints" : [  ]
				}

			}
, 			{
				"patchline" : 				{
					"source" : [ "obj-173", 0 ],
					"destination" : [ "obj-64", 0 ],
					"hidden" : 0,
					"midpoints" : [  ]
				}

			}
, 			{
				"patchline" : 				{
					"source" : [ "obj-173", 0 ],
					"destination" : [ "obj-68", 0 ],
					"hidden" : 0,
					"midpoints" : [  ]
				}

			}
, 			{
				"patchline" : 				{
					"source" : [ "obj-173", 0 ],
					"destination" : [ "obj-48", 0 ],
					"hidden" : 0,
					"midpoints" : [  ]
				}

			}
, 			{
				"patchline" : 				{
					"source" : [ "obj-173", 0 ],
					"destination" : [ "obj-52", 0 ],
					"hidden" : 0,
					"midpoints" : [  ]
				}

			}
, 			{
				"patchline" : 				{
					"source" : [ "obj-173", 0 ],
					"destination" : [ "obj-40", 0 ],
					"hidden" : 0,
					"midpoints" : [  ]
				}

			}
, 			{
				"patchline" : 				{
					"source" : [ "obj-173", 0 ],
					"destination" : [ "obj-36", 0 ],
					"hidden" : 0,
					"midpoints" : [  ]
				}

			}
, 			{
				"patchline" : 				{
					"source" : [ "obj-173", 0 ],
					"destination" : [ "obj-24", 0 ],
					"hidden" : 0,
					"midpoints" : [  ]
				}

			}
, 			{
				"patchline" : 				{
					"source" : [ "obj-173", 0 ],
					"destination" : [ "obj-20", 0 ],
					"hidden" : 0,
					"midpoints" : [  ]
				}

			}
, 			{
				"patchline" : 				{
					"source" : [ "obj-173", 0 ],
					"destination" : [ "obj-16", 0 ],
					"hidden" : 0,
					"midpoints" : [  ]
				}

			}
, 			{
				"patchline" : 				{
					"source" : [ "obj-173", 0 ],
					"destination" : [ "obj-1", 0 ],
					"hidden" : 0,
					"midpoints" : [  ]
				}

			}
, 			{
				"patchline" : 				{
					"source" : [ "obj-175", 0 ],
					"destination" : [ "obj-173", 0 ],
					"hidden" : 0,
					"midpoints" : [  ]
				}

			}
, 			{
				"patchline" : 				{
					"source" : [ "obj-145", 0 ],
					"destination" : [ "obj-146", 0 ],
					"hidden" : 0,
					"midpoints" : [  ]
				}

			}
, 			{
				"patchline" : 				{
					"source" : [ "obj-140", 0 ],
					"destination" : [ "obj-141", 0 ],
					"hidden" : 0,
					"midpoints" : [  ]
				}

			}
, 			{
				"patchline" : 				{
					"source" : [ "obj-135", 0 ],
					"destination" : [ "obj-136", 0 ],
					"hidden" : 0,
					"midpoints" : [  ]
				}

			}
, 			{
				"patchline" : 				{
					"source" : [ "obj-130", 0 ],
					"destination" : [ "obj-131", 0 ],
					"hidden" : 0,
					"midpoints" : [  ]
				}

			}
, 			{
				"patchline" : 				{
					"source" : [ "obj-125", 0 ],
					"destination" : [ "obj-126", 0 ],
					"hidden" : 0,
					"midpoints" : [  ]
				}

			}
, 			{
				"patchline" : 				{
					"source" : [ "obj-120", 0 ],
					"destination" : [ "obj-121", 0 ],
					"hidden" : 0,
					"midpoints" : [  ]
				}

			}
, 			{
				"patchline" : 				{
					"source" : [ "obj-95", 0 ],
					"destination" : [ "obj-96", 0 ],
					"hidden" : 0,
					"midpoints" : [  ]
				}

			}
, 			{
				"patchline" : 				{
					"source" : [ "obj-94", 0 ],
					"destination" : [ "obj-95", 0 ],
					"hidden" : 0,
					"midpoints" : [  ]
				}

			}
, 			{
				"patchline" : 				{
					"source" : [ "obj-69", 0 ],
					"destination" : [ "obj-72", 0 ],
					"hidden" : 0,
					"midpoints" : [  ]
				}

			}
, 			{
				"patchline" : 				{
					"source" : [ "obj-73", 0 ],
					"destination" : [ "obj-76", 0 ],
					"hidden" : 0,
					"midpoints" : [  ]
				}

			}
, 			{
				"patchline" : 				{
					"source" : [ "obj-61", 0 ],
					"destination" : [ "obj-64", 0 ],
					"hidden" : 0,
					"midpoints" : [  ]
				}

			}
, 			{
				"patchline" : 				{
					"source" : [ "obj-65", 0 ],
					"destination" : [ "obj-68", 0 ],
					"hidden" : 0,
					"midpoints" : [  ]
				}

			}
, 			{
				"patchline" : 				{
					"source" : [ "obj-53", 0 ],
					"destination" : [ "obj-56", 0 ],
					"hidden" : 0,
					"midpoints" : [  ]
				}

			}
, 			{
				"patchline" : 				{
					"source" : [ "obj-57", 0 ],
					"destination" : [ "obj-60", 0 ],
					"hidden" : 0,
					"midpoints" : [  ]
				}

			}
, 			{
				"patchline" : 				{
					"source" : [ "obj-45", 0 ],
					"destination" : [ "obj-48", 0 ],
					"hidden" : 0,
					"midpoints" : [  ]
				}

			}
, 			{
				"patchline" : 				{
					"source" : [ "obj-49", 0 ],
					"destination" : [ "obj-52", 0 ],
					"hidden" : 0,
					"midpoints" : [  ]
				}

			}
, 			{
				"patchline" : 				{
					"source" : [ "obj-37", 0 ],
					"destination" : [ "obj-40", 0 ],
					"hidden" : 0,
					"midpoints" : [  ]
				}

			}
, 			{
				"patchline" : 				{
					"source" : [ "obj-33", 0 ],
					"destination" : [ "obj-36", 0 ],
					"hidden" : 0,
					"midpoints" : [  ]
				}

			}
, 			{
				"patchline" : 				{
					"source" : [ "obj-29", 0 ],
					"destination" : [ "obj-32", 0 ],
					"hidden" : 0,
					"midpoints" : [  ]
				}

			}
, 			{
				"patchline" : 				{
					"source" : [ "obj-25", 0 ],
					"destination" : [ "obj-28", 0 ],
					"hidden" : 0,
					"midpoints" : [  ]
				}

			}
, 			{
				"patchline" : 				{
					"source" : [ "obj-21", 0 ],
					"destination" : [ "obj-24", 0 ],
					"hidden" : 0,
					"midpoints" : [  ]
				}

			}
, 			{
				"patchline" : 				{
					"source" : [ "obj-17", 0 ],
					"destination" : [ "obj-20", 0 ],
					"hidden" : 0,
					"midpoints" : [  ]
				}

			}
, 			{
				"patchline" : 				{
					"source" : [ "obj-13", 0 ],
					"destination" : [ "obj-16", 0 ],
					"hidden" : 0,
					"midpoints" : [  ]
				}

			}
, 			{
				"patchline" : 				{
					"source" : [ "obj-12", 0 ],
					"destination" : [ "obj-1", 0 ],
					"hidden" : 0,
					"midpoints" : [  ]
				}

			}
, 			{
				"patchline" : 				{
					"source" : [ "obj-2", 0 ],
					"destination" : [ "obj-3", 0 ],
					"hidden" : 0,
					"midpoints" : [  ]
				}

			}
, 			{
				"patchline" : 				{
					"source" : [ "obj-3", 0 ],
					"destination" : [ "obj-4", 0 ],
					"hidden" : 0,
					"midpoints" : [  ]
				}

			}
, 			{
				"patchline" : 				{
					"source" : [ "obj-4", 0 ],
					"destination" : [ "obj-180", 0 ],
					"hidden" : 0,
					"midpoints" : [  ]
				}

			}
, 			{
				"patchline" : 				{
					"source" : [ "obj-178", 1 ],
					"destination" : [ "obj-5", 0 ],
					"hidden" : 0,
					"midpoints" : [  ]
				}

			}
, 			{
				"patchline" : 				{
					"source" : [ "obj-150", 0 ],
					"destination" : [ "obj-46", 0 ],
					"hidden" : 0,
					"midpoints" : [  ]
				}

			}
, 			{
				"patchline" : 				{
					"source" : [ "obj-152", 0 ],
					"destination" : [ "obj-44", 0 ],
					"hidden" : 0,
					"midpoints" : [  ]
				}

			}
, 			{
				"patchline" : 				{
					"source" : [ "obj-154", 0 ],
					"destination" : [ "obj-43", 0 ],
					"hidden" : 0,
					"midpoints" : [  ]
				}

			}
, 			{
				"patchline" : 				{
					"source" : [ "obj-156", 0 ],
					"destination" : [ "obj-42", 0 ],
					"hidden" : 0,
					"midpoints" : [  ]
				}

			}
, 			{
				"patchline" : 				{
					"source" : [ "obj-158", 0 ],
					"destination" : [ "obj-41", 0 ],
					"hidden" : 0,
					"midpoints" : [  ]
				}

			}
, 			{
				"patchline" : 				{
					"source" : [ "obj-160", 0 ],
					"destination" : [ "obj-39", 0 ],
					"hidden" : 0,
					"midpoints" : [  ]
				}

			}
, 			{
				"patchline" : 				{
					"source" : [ "obj-54", 0 ],
					"destination" : [ "obj-39", 1 ],
					"hidden" : 0,
					"midpoints" : [  ]
				}

			}
, 			{
				"patchline" : 				{
					"source" : [ "obj-54", 0 ],
					"destination" : [ "obj-41", 1 ],
					"hidden" : 0,
					"midpoints" : [  ]
				}

			}
, 			{
				"patchline" : 				{
					"source" : [ "obj-54", 0 ],
					"destination" : [ "obj-42", 1 ],
					"hidden" : 0,
					"midpoints" : [  ]
				}

			}
, 			{
				"patchline" : 				{
					"source" : [ "obj-54", 0 ],
					"destination" : [ "obj-43", 1 ],
					"hidden" : 0,
					"midpoints" : [  ]
				}

			}
, 			{
				"patchline" : 				{
					"source" : [ "obj-54", 0 ],
					"destination" : [ "obj-44", 1 ],
					"hidden" : 0,
					"midpoints" : [  ]
				}

			}
, 			{
				"patchline" : 				{
					"source" : [ "obj-54", 0 ],
					"destination" : [ "obj-46", 1 ],
					"hidden" : 0,
					"midpoints" : [  ]
				}

			}
, 			{
				"patchline" : 				{
					"source" : [ "obj-59", 0 ],
					"destination" : [ "obj-55", 0 ],
					"hidden" : 0,
					"midpoints" : [  ]
				}

			}
, 			{
				"patchline" : 				{
					"source" : [ "obj-39", 0 ],
					"destination" : [ "obj-144", 0 ],
					"hidden" : 0,
					"midpoints" : [  ]
				}

			}
, 			{
				"patchline" : 				{
					"source" : [ "obj-46", 0 ],
					"destination" : [ "obj-119", 0 ],
					"hidden" : 0,
					"midpoints" : [  ]
				}

			}
, 			{
				"patchline" : 				{
					"source" : [ "obj-44", 0 ],
					"destination" : [ "obj-124", 0 ],
					"hidden" : 0,
					"midpoints" : [  ]
				}

			}
, 			{
				"patchline" : 				{
					"source" : [ "obj-43", 0 ],
					"destination" : [ "obj-129", 0 ],
					"hidden" : 0,
					"midpoints" : [  ]
				}

			}
, 			{
				"patchline" : 				{
					"source" : [ "obj-42", 0 ],
					"destination" : [ "obj-134", 0 ],
					"hidden" : 0,
					"midpoints" : [  ]
				}

			}
, 			{
				"patchline" : 				{
					"source" : [ "obj-41", 0 ],
					"destination" : [ "obj-139", 0 ],
					"hidden" : 0,
					"midpoints" : [  ]
				}

			}
, 			{
				"patchline" : 				{
					"source" : [ "obj-71", 0 ],
					"destination" : [ "obj-59", 0 ],
					"hidden" : 0,
					"midpoints" : [  ]
				}

			}
 ]
	}

}
